<svg version="1.1" id="Layer_1" xmlns="http://www.w3.org/2000/svg" xmlns:xlink="http://www.w3.org/1999/xlink" x="0px" y="0px"
	 width="100%" viewBox="0 0 500 500" enable-background="new 0 0 500 500" xml:space="preserve">
<path fill="#5260FF" opacity="1.000000" stroke="none" 
	d="
M319.000000,501.000000 
	C212.666687,501.000000 106.833382,501.000000 1.000057,501.000000 
	C1.000038,334.333405 1.000038,167.666794 1.000019,1.000146 
	C167.666565,1.000098 334.333130,1.000098 500.999756,1.000049 
	C500.999847,167.666519 500.999847,334.333038 500.999939,500.999786 
	C440.500000,501.000000 380.000000,501.000000 319.000000,501.000000 
M125.921844,423.049896 
	C122.261047,423.033051 118.567154,422.728760 114.956200,423.144684 
	C113.564896,423.304932 112.362183,425.102478 111.073540,426.154053 
	C112.120651,427.126465 113.010681,428.489075 114.248627,428.987457 
	C116.594467,429.931824 119.103210,430.660614 121.608467,430.988312 
	C135.015320,432.742188 148.410568,434.696991 161.870895,435.897736 
	C174.663071,437.038910 187.525696,437.776001 200.365768,437.915497 
	C228.320908,438.219208 256.282013,438.139374 284.239502,437.992798 
	C297.314667,437.924225 310.409363,437.696228 323.454926,436.888977 
	C337.994049,435.989288 352.502319,434.491882 366.994019,432.968781 
	C373.896454,432.243286 380.759277,431.003906 387.565979,429.630371 
	C388.787323,429.383911 389.646973,427.345123 390.673615,426.133850 
	C389.424347,425.420715 388.235260,424.255096 386.914520,424.079559 
	C383.019836,423.561890 379.073029,423.436279 374.344391,422.991028 
	C367.869965,422.607330 361.395569,422.223602 354.346924,421.259705 
	C350.556396,421.167877 346.762451,421.147491 342.976227,420.965942 
	C338.280457,420.740814 333.591156,420.382202 329.208038,419.460724 
	C332.611206,415.416351 337.340668,411.774841 333.273010,405.353058 
	C350.376892,393.088959 355.166077,376.693695 350.208099,356.585175 
	C347.821472,346.905457 346.705383,336.912506 345.605804,326.747192 
	C359.911438,314.253418 371.627441,299.647430 380.085999,282.667725 
	C394.204376,254.326630 398.491211,224.355682 392.992554,193.192917 
	C386.749084,157.809219 369.224548,128.872406 341.578461,106.066307 
	C320.240662,88.464111 295.845917,78.065834 268.266602,74.849846 
	C240.434692,71.604393 213.592880,75.207443 188.537918,87.493011 
	C165.999725,98.544510 146.941605,114.374298 132.750916,135.441986 
	C111.169212,167.482513 102.844734,202.545013 108.932320,240.882797 
	C114.588318,276.502502 131.687103,305.584167 158.953568,329.791016 
	C156.997543,339.309937 154.924728,348.806641 153.110657,358.352539 
	C149.695374,376.324310 152.309891,392.339661 168.340942,403.857208 
	C169.342407,404.576691 170.461334,405.593475 170.799942,406.695038 
	C172.257751,411.437347 173.444565,416.262970 174.943161,421.853180 
	C169.601913,421.853180 163.337601,421.802856 157.074417,421.864960 
	C147.585144,421.958984 138.096359,422.115509 128.608612,422.307220 
	C128.007874,422.319336 127.417900,422.863373 125.921844,423.049896 
z"/>
<path fill="#3E3145" opacity="1.000000" stroke="none" 
	d="
M158.874725,328.970947 
	C131.687103,305.584167 114.588318,276.502502 108.932320,240.882797 
	C102.844734,202.545013 111.169212,167.482513 132.750916,135.441986 
	C146.941605,114.374298 165.999725,98.544510 188.537918,87.493011 
	C213.592880,75.207443 240.434692,71.604393 268.266602,74.849846 
	C295.845917,78.065834 320.240662,88.464111 341.578461,106.066307 
	C369.224548,128.872406 386.749084,157.809219 392.992554,193.192917 
	C398.491211,224.355682 394.204376,254.326630 380.085999,282.667725 
	C371.627441,299.647430 359.911438,314.253418 345.045074,326.644958 
	C343.976929,324.078491 343.469513,321.614288 343.028320,318.750885 
	C345.056335,310.569794 347.018127,302.787933 349.136444,294.661987 
	C349.870087,291.553986 350.447205,288.790070 351.270905,285.756958 
	C352.654175,280.892303 353.790802,276.296783 355.330872,271.640686 
	C356.225494,271.537842 356.744720,271.583923 357.203156,271.438446 
	C359.438171,270.729065 361.657013,269.968475 363.881561,269.225983 
	C361.578857,268.502228 359.276184,267.778473 356.963806,266.680237 
	C356.470490,262.843323 354.346619,262.536743 351.238403,262.636078 
	C342.749542,262.907349 334.113312,264.488342 325.887878,260.454071 
	C325.948303,253.041916 326.006592,246.021301 326.527588,239.019165 
	C337.817169,239.041031 348.645355,239.125671 359.469360,238.951202 
	C360.920959,238.927795 362.351501,237.596069 363.791779,236.870209 
	C362.421448,236.267517 361.055450,235.154129 359.680145,235.142532 
	C348.189575,235.045517 336.697296,235.151169 325.133606,234.801025 
	C323.983490,230.672592 322.905304,226.938828 322.301819,223.125977 
	C326.229401,223.023315 329.692993,223.143005 333.128418,222.886414 
	C334.122925,222.812134 335.036835,221.658279 335.987701,220.999359 
	C335.050659,220.332153 334.137665,219.132507 333.172485,219.088913 
	C328.742157,218.888779 324.297211,219.011795 319.614319,218.786224 
	C317.260651,214.696335 315.150146,210.839050 313.503906,206.949081 
	C330.587219,206.889557 347.206238,206.862732 363.825256,206.835907 
	C363.925751,206.084366 364.026215,205.332840 364.126709,204.581314 
	C362.825867,204.027618 361.525238,202.993637 360.224152,202.993088 
	C343.587616,202.986084 326.951019,203.127060 310.104340,202.938110 
	C306.917480,198.771332 303.940704,194.896927 301.431885,190.955505 
	C321.053101,190.872040 340.206757,190.900589 359.359039,190.752716 
	C360.871765,190.741028 362.375061,189.503448 363.882721,188.835587 
	C362.620331,188.116272 361.359161,186.773163 360.095337,186.770630 
	C339.120850,186.728439 318.146027,186.854446 296.861450,186.808563 
	C292.371552,182.755981 288.191467,178.837662 284.475403,174.844315 
	C297.220001,174.753250 309.501648,174.804230 321.779755,174.619095 
	C323.027130,174.600281 324.253082,173.160919 325.488983,172.380783 
	C324.423920,171.811539 323.359161,170.748245 322.293762,170.747574 
	C307.697235,170.738342 293.100616,170.875778 278.222198,170.833801 
	C269.945984,166.864441 261.951599,163.038437 254.019745,159.012863 
	C254.082306,158.813278 254.206787,158.414932 254.660538,158.387070 
	C258.780640,158.344711 262.446960,158.319305 266.113312,158.317688 
	C278.946106,158.312027 291.779846,158.387207 304.610504,158.222427 
	C306.220215,158.201782 307.813843,156.931931 309.414917,156.240875 
	C307.738098,155.575058 306.062958,154.905029 304.381592,154.250870 
	C304.236816,154.194550 304.051147,154.243118 303.884491,154.243118 
	C268.552643,154.243118 233.220795,154.242233 197.888947,154.247131 
	C196.723465,154.247299 195.453842,154.030777 194.423965,154.420517 
	C193.526093,154.760315 192.898605,155.814590 192.151657,156.553162 
	C192.868240,157.112503 193.514893,157.977463 194.317429,158.161087 
	C195.589539,158.452148 196.965881,158.309311 198.298203,158.312393 
	C214.796738,158.350586 231.295288,158.381973 247.856232,158.615067 
	C247.918640,158.815018 248.043472,159.214935 247.730377,159.410721 
	C239.418671,163.395416 231.420059,167.184326 222.927155,170.897797 
	C210.006500,170.785446 197.579285,170.666138 185.154663,170.795410 
	C183.161972,170.816162 181.180832,171.948074 179.194351,172.566299 
	C181.195221,173.252075 183.182480,174.482483 185.199234,174.532867 
	C196.124496,174.805847 207.057083,174.787018 217.802811,175.148682 
	C213.359238,179.327148 209.100006,183.225632 204.390472,187.038025 
	C184.830811,186.906006 165.721436,186.858963 146.612030,186.818665 
	C145.949188,186.817276 145.160141,186.667282 144.650986,186.964813 
	C143.747940,187.492554 143.014755,188.310944 142.210495,189.007721 
	C143.039917,189.617493 143.791275,190.499924 144.719223,190.765625 
	C145.794739,191.073578 147.025391,190.837372 148.188705,190.841263 
	C165.801208,190.900314 183.413696,190.960007 200.868286,191.314270 
	C197.467453,195.421616 194.224518,199.234222 190.516312,203.013824 
	C186.385666,202.976990 182.712799,202.843765 179.059952,203.055679 
	C178.084305,203.112289 177.169876,204.224365 176.227356,204.851868 
	C177.137131,205.537216 178.004761,206.735992 178.964310,206.814728 
	C182.275955,207.086411 185.619659,206.967438 188.823212,207.315231 
	C186.436646,211.439972 184.178024,215.246719 181.455750,219.032028 
	C169.871277,219.006226 158.750000,218.951721 147.630005,219.046371 
	C145.752243,219.062363 143.879959,219.721298 142.005127,220.083176 
	C142.063644,220.805923 142.122162,221.528656 142.180664,222.251389 
	C154.766739,224.013824 167.542099,222.257858 180.131714,223.571869 
	C178.990250,227.701538 177.889755,231.452942 176.336746,235.166931 
	C166.069489,235.106918 156.254272,235.031113 146.440491,235.118210 
	C144.941101,235.131500 143.448425,235.897980 141.952637,236.316101 
	C142.027390,236.950409 142.102127,237.584732 142.176880,238.219040 
	C153.347061,240.032257 164.684723,238.629822 175.938461,239.423111 
	C175.619675,245.232101 175.292648,250.614944 174.534607,255.998352 
	C171.056290,255.301331 168.008987,254.603745 164.939697,253.517227 
	C163.886810,252.476974 162.873184,251.296432 161.822205,251.262207 
	C156.006317,251.072723 150.180420,251.112030 144.360504,251.215775 
	C143.571671,251.229843 142.797134,252.046539 141.178726,252.968582 
	C143.203568,254.317612 144.597122,255.246063 146.012787,256.560669 
	C146.693680,260.307922 147.352463,263.669067 147.605743,267.097656 
	C146.539047,267.190918 145.755981,266.999054 145.241653,267.287109 
	C144.111420,267.920135 143.117065,268.795776 142.067261,269.572388 
	C143.095383,270.135895 144.065643,270.946777 145.165421,271.204071 
	C146.756989,271.576477 148.442307,271.548218 150.116425,272.095154 
	C151.762299,278.332947 153.379395,284.166473 155.002930,290.404846 
	C157.282623,298.888824 159.555878,306.967896 161.856171,315.359192 
	C161.892288,316.088715 161.901382,316.506012 161.684418,317.222809 
	C160.597153,321.338501 159.735947,325.154724 158.874725,328.970947 
M149.693298,158.315872 
	C154.496994,158.315826 159.318680,158.574112 164.099228,158.241440 
	C168.674332,157.923035 173.639786,159.751602 178.440567,156.664993 
	C173.178452,153.035339 145.283630,153.429565 141.611771,157.559555 
	C144.447311,157.859726 146.603256,158.087952 149.693298,158.315872 
M338.779785,154.243256 
	C338.279877,154.243454 337.711487,154.087570 337.292236,154.271545 
	C335.681732,154.978287 334.119019,155.793991 332.538483,156.569046 
	C334.096222,157.150726 335.643372,158.199371 337.213501,158.234955 
	C344.874573,158.408524 352.543274,158.387146 360.205261,158.233978 
	C361.444977,158.209198 362.664490,157.173981 363.893341,156.605835 
	C362.665100,155.822571 361.457977,154.403473 360.205109,154.361862 
	C353.380646,154.135193 346.544922,154.247818 338.779785,154.243256 
M350.495575,170.711288 
	C346.511963,170.738297 342.524719,170.685181 338.547943,170.864304 
	C337.809784,170.897552 337.113739,171.866058 336.398224,172.402908 
	C337.032257,173.020737 337.655884,174.163681 338.301880,174.176453 
	C346.094513,174.330368 353.890900,174.361145 361.684662,174.274353 
	C362.400146,174.266388 363.104187,173.229462 363.813538,172.670334 
	C363.024994,172.035019 362.270325,170.907867 361.441956,170.850845 
	C358.136261,170.623260 354.807678,170.728668 350.495575,170.711288 
M144.112045,174.918381 
	C150.346252,174.265884 157.093231,176.865601 162.858719,173.240204 
	C162.798676,172.657959 162.738617,172.075714 162.678574,171.493469 
	C155.899750,171.493469 149.120941,171.493469 141.742661,171.493469 
	C142.356049,172.752060 142.814224,173.692154 144.112045,174.918381 
M150.604279,202.980225 
	C147.751038,203.232208 144.897797,203.484177 140.830963,203.843338 
	C145.610657,207.988129 160.183319,207.672272 163.751129,203.412155 
	C159.077499,203.246658 155.314850,203.113434 150.604279,202.980225 
M345.120026,252.038086 
	C343.891968,254.930740 345.884796,255.123138 347.834473,255.149612 
	C352.151733,255.208206 356.475525,255.275818 360.784851,255.080261 
	C361.835815,255.032593 362.841309,253.982834 363.867706,253.393814 
	C362.786896,252.646896 361.720184,251.284073 360.622772,251.258865 
	C355.666107,251.145065 350.700745,251.409775 345.120026,252.038086 
M351.802551,218.984177 
	C351.305328,218.984955 350.730621,218.823196 350.325195,219.016479 
	C349.025055,219.636353 347.787567,220.387573 346.525909,221.088120 
	C347.858765,221.721695 349.156433,222.791016 350.531464,222.902008 
	C353.824493,223.167740 357.161438,223.109756 360.464722,222.913696 
	C361.688690,222.841019 362.868042,222.016815 364.067780,221.535355 
	C364.018890,220.807037 363.970032,220.078720 363.921173,219.350403 
	C360.187073,219.228317 356.453003,219.106216 351.802551,218.984177 
z"/>
<path fill="#090977" opacity="1.000000" stroke="none" 
	d="
M342.962097,319.150085 
	C343.469513,321.614288 343.976929,324.078491 344.749146,326.802032 
	C346.705383,336.912506 347.821472,346.905457 350.208099,356.585175 
	C355.166077,376.693695 350.376892,393.088959 333.273010,405.353058 
	C337.340668,411.774841 332.611206,415.416351 328.852600,420.028595 
	C329.703613,421.045441 330.905853,421.868561 332.117249,421.882294 
	C339.717407,421.968445 347.319611,421.874359 354.921143,421.839905 
	C361.395569,422.223602 367.869965,422.607330 374.510925,423.387146 
	C370.063293,424.267365 365.449768,425.165344 360.834900,425.172302 
	C306.853668,425.253876 252.872223,425.211792 198.890839,425.179138 
	C178.399017,425.166718 157.906281,425.182190 137.416290,424.965485 
	C133.879211,424.928101 130.353745,423.789764 126.822922,423.159973 
	C127.417900,422.863373 128.007874,422.319336 128.608612,422.307220 
	C138.096359,422.115509 147.585144,421.958984 157.074417,421.864960 
	C163.337601,421.802856 169.601913,421.853180 174.943161,421.853180 
	C173.444565,416.262970 172.257751,411.437347 170.799942,406.695038 
	C170.461334,405.593475 169.342407,404.576691 168.340942,403.857208 
	C152.309891,392.339661 149.695374,376.324310 153.110657,358.352539 
	C154.924728,348.806641 156.997543,339.309937 158.914154,329.380981 
	C159.735947,325.154724 160.597153,321.338501 161.760025,317.577972 
	C162.742279,319.109253 163.422867,320.584839 164.115326,322.460938 
	C164.008392,324.196381 163.889587,325.531311 163.526901,327.168152 
	C160.993134,338.831848 158.638885,350.181152 156.433029,361.559204 
	C154.558701,371.227264 155.037842,380.563477 161.240479,389.167175 
	C161.938599,390.331482 162.392929,391.284363 162.948166,392.553375 
	C166.921417,396.344269 170.793777,399.819031 174.666138,403.293762 
	C175.020050,402.917358 175.373947,402.540955 175.727859,402.164551 
	C175.727859,399.401276 175.727859,396.637970 175.704651,393.473602 
	C174.423248,379.707184 173.165054,366.341827 171.935547,352.536133 
	C171.334946,344.984680 170.516220,337.884094 170.121719,330.760040 
	C169.558929,320.597198 175.075516,314.873474 185.328598,314.806183 
	C198.468307,314.719971 211.608948,314.772614 225.236008,314.837830 
	C242.898193,314.862000 260.073547,314.813751 277.701599,314.763672 
	C291.317780,314.770660 304.488708,315.046387 317.641754,314.680115 
	C324.631561,314.485474 329.971832,316.634888 333.915100,322.755432 
	C334.354126,325.452271 334.752289,327.781036 335.092529,330.534058 
	C334.400299,338.612396 333.765961,346.266418 333.072937,354.359314 
	C332.330780,363.544617 331.647247,372.291138 330.879089,381.441315 
	C330.168243,388.325867 329.541992,394.806732 328.792297,402.564972 
	C331.487610,400.849152 333.095734,400.065796 334.418152,398.945282 
	C344.523804,390.382629 349.480072,379.274628 347.720642,366.283112 
	C346.061676,354.033356 342.727997,342.010406 340.118958,329.534027 
	C340.118042,328.469452 340.129211,327.758484 340.351562,326.750244 
	C341.074677,323.973450 341.586639,321.493896 342.314911,319.045471 
	C342.531219,319.076538 342.962097,319.150085 342.962097,319.150085 
M257.796265,420.996460 
	C276.898926,421.022430 296.001892,421.115021 315.104156,421.040344 
	C322.374146,421.011932 327.998901,416.748474 329.451111,410.360291 
	C328.236481,410.518463 326.736206,410.251953 326.110626,410.870300 
	C322.064392,414.869781 317.024872,414.328461 312.054962,414.345062 
	C296.621216,414.396637 281.187592,414.485870 264.852905,414.483032 
	C240.585129,414.475464 216.317337,414.456512 192.049561,414.470490 
	C187.544342,414.473083 183.078094,414.679138 179.407593,411.201416 
	C178.662354,410.495270 177.063339,410.690155 175.560486,410.415253 
	C177.617676,416.805939 182.683533,420.947357 189.067566,420.963989 
	C211.669266,421.022980 234.271591,420.831665 257.796265,420.996460 
M325.800446,320.185822 
	C323.390533,319.717590 320.986969,318.887634 318.569611,318.845428 
	C309.409607,318.685455 300.245148,318.780426 291.082336,318.780518 
	C256.263702,318.780762 221.445053,318.765015 186.626450,318.792389 
	C177.391876,318.799622 173.367111,323.484039 174.442413,332.732727 
	C174.692291,334.881927 174.833069,337.043762 175.024887,339.199738 
	C176.913559,360.428589 178.724655,381.665131 180.811020,402.874542 
	C181.020584,405.004883 182.898193,406.971161 184.562241,409.669922 
	C199.344650,409.705597 214.127060,409.741272 229.810837,410.103088 
	C258.071106,410.142426 286.331390,410.190216 314.591675,410.215576 
	C322.410645,410.222626 323.914124,409.033539 324.635590,401.203308 
	C326.800354,377.708496 328.813080,354.199585 330.861938,330.694153 
	C331.218353,326.605408 329.953949,323.174103 326.287109,320.699890 
	C326.287109,320.699890 326.218231,320.877808 325.800446,320.185822 
z"/>
<path fill="#AFAFD3" opacity="1.000000" stroke="none" 
	d="
M126.372383,423.104919 
	C130.353745,423.789764 133.879211,424.928101 137.416290,424.965485 
	C157.906281,425.182190 178.399017,425.166718 198.890839,425.179138 
	C252.872223,425.211792 306.853668,425.253876 360.834900,425.172302 
	C365.449768,425.165344 370.063293,424.267365 374.912048,423.470276 
	C379.073029,423.436279 383.019836,423.561890 386.914520,424.079559 
	C388.235260,424.255096 389.424347,425.420715 390.673615,426.133850 
	C389.646973,427.345123 388.787323,429.383911 387.565979,429.630371 
	C380.759277,431.003906 373.896454,432.243286 366.994019,432.968781 
	C352.502319,434.491882 337.994049,435.989288 323.454926,436.888977 
	C310.409363,437.696228 297.314667,437.924225 284.239502,437.992798 
	C256.282013,438.139374 228.320908,438.219208 200.365768,437.915497 
	C187.525696,437.776001 174.663071,437.038910 161.870895,435.897736 
	C148.410568,434.696991 135.015320,432.742188 121.608467,430.988312 
	C119.103210,430.660614 116.594467,429.931824 114.248627,428.987457 
	C113.010681,428.489075 112.120651,427.126465 111.073540,426.154053 
	C112.362183,425.102478 113.564896,423.304932 114.956200,423.144684 
	C118.567154,422.728760 122.261047,423.033051 126.372383,423.104919 
z"/>
<path fill="#314D81" opacity="1.000000" stroke="none" 
	d="
M354.634033,421.549805 
	C347.319611,421.874359 339.717407,421.968445 332.117249,421.882294 
	C330.905853,421.868561 329.703613,421.045441 328.698120,420.338867 
	C333.591156,420.382202 338.280457,420.740814 342.976227,420.965942 
	C346.762451,421.147491 350.556396,421.167877 354.634033,421.549805 
z"/>
<path fill="#080773" opacity="1.000000" stroke="none" 
	d="
M326.064880,239.000687 
	C326.006592,246.021301 325.948303,253.041916 325.682739,260.690643 
	C324.999023,262.228882 324.522552,263.139008 323.717102,263.893921 
	C322.466919,263.476227 321.545654,263.213684 320.711365,262.559723 
	C320.891266,261.106903 320.984192,260.045532 321.259277,258.638794 
	C321.888702,255.035400 322.961273,251.723404 322.685669,248.527695 
	C320.142639,219.043503 303.980042,197.479782 281.923279,179.297333 
	C281.860657,179.202820 281.463837,178.966354 281.223877,178.706955 
	C279.665192,177.613007 278.346466,176.778458 277.010925,175.967194 
	C276.994110,175.990494 277.046722,175.967728 276.911835,175.675858 
	C275.859924,174.904419 274.942902,174.424850 274.009521,173.967163 
	C273.993134,173.989044 274.045380,173.973236 273.941803,173.690414 
	C273.207458,172.921021 272.576691,172.434464 271.842407,171.904755 
	C271.738892,171.861618 271.517487,171.825897 271.254578,171.616394 
	C270.351227,171.252884 269.710754,171.098877 269.040588,170.965027 
	C269.010864,170.985168 269.057404,170.946716 268.924988,170.629395 
	C265.135437,168.528229 261.478271,166.744370 257.526459,164.688705 
	C252.801239,164.473190 247.960541,163.379028 244.011719,164.786697 
	C227.694885,170.603424 215.327774,182.008255 202.918320,195.358093 
	C206.168930,195.358093 208.166260,195.358093 208.900894,195.358093 
	C211.234009,192.525253 213.110428,190.246933 215.336075,188.037598 
	C218.026428,189.783234 220.367569,191.459854 222.936279,193.299469 
	C229.008087,187.224304 236.919373,184.344574 245.679779,182.852859 
	C257.223938,180.887100 268.144043,183.382370 279.343079,186.546143 
	C283.374512,188.194153 287.149719,189.653809 291.209686,191.279541 
	C296.312836,197.639709 301.131256,203.833801 305.880066,210.364853 
	C303.877350,211.559509 301.944305,212.417206 299.794586,213.371017 
	C305.966125,224.237976 305.874054,236.370316 304.323730,248.711700 
	C304.201935,249.681015 304.561615,251.014404 305.202972,251.717606 
	C306.943756,253.626282 308.956421,255.286987 310.893677,257.455017 
	C310.922363,259.234467 310.918671,260.604919 310.531830,261.982819 
	C309.382294,261.997742 308.615906,262.005188 307.774261,261.641846 
	C307.175903,258.433197 307.165649,255.185547 302.944275,255.166519 
	C301.421448,258.184875 299.957367,261.086761 298.292725,263.645813 
	C297.448029,262.869110 296.803955,262.435211 296.271423,261.666382 
	C300.479523,253.022003 302.509796,244.192398 301.839630,234.990219 
	C301.293549,227.492157 300.641083,219.826843 295.198425,213.403992 
	C294.529480,211.485535 293.902649,209.910019 293.057648,207.786102 
	C295.847992,207.786102 297.874969,207.786102 300.873993,207.786102 
	C299.091461,205.266220 297.923218,203.309875 296.461700,201.604980 
	C291.806671,196.174713 285.806793,192.857590 278.852509,190.561005 
	C267.831299,185.650513 256.460663,184.623703 244.962204,186.405167 
	C236.677734,187.688705 228.789673,190.384186 223.691589,198.392822 
	C221.444519,201.141907 220.316666,200.296173 219.382172,197.717896 
	C218.797638,196.105148 217.884720,194.611420 217.119156,193.064285 
	C216.609283,193.266190 216.099411,193.468094 215.589523,193.669983 
	C216.280319,197.003311 216.971115,200.336624 217.769516,204.189163 
	C216.257690,203.728546 215.319000,203.551605 214.475891,203.165817 
	C211.625931,201.861755 208.913086,200.098175 205.936081,199.301025 
	C204.508774,198.918839 202.606186,200.311737 200.918839,200.900711 
	C201.497757,202.376312 201.666336,204.369583 202.740189,205.220734 
	C205.041931,207.045074 207.746918,208.411240 210.410706,209.711014 
	C212.297531,210.631668 213.796997,211.381760 211.661194,213.749710 
	C201.965027,219.886658 198.319794,233.807785 202.943542,246.403458 
	C203.704773,249.504089 204.415726,252.210007 205.104950,255.237061 
	C205.344559,256.362457 205.605911,257.166687 205.496094,257.983643 
	C204.132233,257.999908 203.139526,258.003418 202.040924,257.640442 
	C200.316071,256.534546 198.220886,254.801147 197.192276,255.293930 
	C195.733124,255.992996 195.059525,258.331726 193.691040,259.982239 
	C192.615662,259.987518 191.899490,259.980316 191.123505,259.730103 
	C191.026581,259.324402 190.989471,259.161743 191.049438,258.652283 
	C193.659271,255.607849 196.172043,252.910248 199.376724,249.469849 
	C197.393768,237.261566 195.151337,223.537888 206.799271,212.266388 
	C203.778427,210.290543 201.172241,208.585922 198.492599,206.519485 
	C197.884048,205.398788 197.348938,204.639877 196.521011,203.465668 
	C184.791656,220.478287 176.900925,238.077087 179.632935,258.998718 
	C178.202087,259.003510 177.162689,259.002777 176.050430,258.686584 
	C175.640244,257.580048 175.302933,256.788910 174.965637,255.997803 
	C175.292648,250.614944 175.619675,245.232101 176.044754,239.113632 
	C176.358292,237.320129 176.573776,236.262253 176.789246,235.204361 
	C177.889755,231.452942 178.990250,227.701538 180.400345,223.376373 
	C181.113098,221.552917 181.516266,220.303192 181.919403,219.053467 
	C184.178024,215.246719 186.436646,211.439972 189.068695,207.093048 
	C189.955276,205.384201 190.468430,204.215515 190.981598,203.046844 
	C194.224518,199.234222 197.467453,195.421616 201.132202,191.156830 
	C202.649597,189.511139 203.745178,188.317627 204.840759,187.124115 
	C209.100006,183.225632 213.359238,179.327148 218.101013,175.013000 
	C220.196182,173.389328 221.808823,172.181274 223.421448,170.973236 
	C231.420059,167.184326 239.418671,163.395416 248.151474,159.384811 
	C250.576172,159.179565 252.266678,159.196014 253.957184,159.212463 
	C261.951599,163.038437 269.945984,166.864441 278.441895,171.107346 
	C280.632721,172.655960 282.322083,173.787659 284.011414,174.919357 
	C288.191467,178.837662 292.371552,182.755981 296.953491,187.108429 
	C298.558228,188.702560 299.761078,189.862534 300.963928,191.022522 
	C303.940704,194.896927 306.917480,198.771332 310.249512,203.188568 
	C311.416412,204.814865 312.228027,205.898315 313.039612,206.981781 
	C315.150146,210.839050 317.260651,214.696335 319.620209,219.130859 
	C320.521881,220.873749 321.174500,222.039413 321.827087,223.205078 
	C322.905304,226.938828 323.983490,230.672592 325.145020,235.127289 
	C325.507202,236.899048 325.786041,237.949860 326.064880,239.000687 
z"/>
<path fill="#3E4758" opacity="1.000000" stroke="none" 
	d="
M154.996490,290.000000 
	C153.379395,284.166473 151.762299,278.332947 150.574921,272.053009 
	C160.612946,271.677399 170.221252,271.748169 180.154800,271.978760 
	C183.247192,276.128845 186.014328,280.119141 188.887329,284.433838 
	C188.610916,286.041473 188.622543,287.867462 187.762131,288.491882 
	C186.109467,289.691345 183.962418,290.209595 181.636749,290.842163 
	C172.500870,290.449280 163.748672,290.224640 154.996490,290.000000 
z"/>
<path fill="#3E4655" opacity="1.000000" stroke="none" 
	d="
M324.046082,264.049133 
	C324.522552,263.139008 324.999023,262.228882 325.680603,261.082184 
	C334.113312,264.488342 342.749542,262.907349 351.238403,262.636078 
	C354.346619,262.536743 356.470490,262.843323 356.501465,266.745117 
	C347.398529,267.199890 338.745178,267.099243 330.101013,267.335297 
	C328.503235,267.378937 326.942627,268.782776 325.364868,269.558838 
	C326.903137,270.229095 328.426331,271.436157 329.982239,271.479980 
	C338.292786,271.713989 346.611542,271.657379 354.927460,271.701294 
	C353.790802,276.296783 352.654175,280.892303 351.050415,285.426331 
	C348.899780,284.910065 347.225342,284.106964 345.531158,284.062897 
	C339.413788,283.903809 333.286438,284.123352 327.169495,283.956726 
	C323.082916,283.845428 319.007629,283.321960 314.995300,282.637451 
	C318.057556,276.210999 321.051819,270.130066 324.046082,264.049133 
z"/>
<path fill="#5DD746" opacity="1.000000" stroke="none" 
	d="
M247.793839,158.415100 
	C231.295288,158.381973 214.796738,158.350586 198.298203,158.312393 
	C196.965881,158.309311 195.589539,158.452148 194.317429,158.161087 
	C193.514893,157.977463 192.868240,157.112503 192.151657,156.553162 
	C192.898605,155.814590 193.526093,154.760315 194.423965,154.420517 
	C195.453842,154.030777 196.723465,154.247299 197.888947,154.247131 
	C233.220795,154.242233 268.552643,154.243118 303.884491,154.243118 
	C304.051147,154.243118 304.236816,154.194550 304.381592,154.250870 
	C306.062958,154.905029 307.738098,155.575058 309.414917,156.240875 
	C307.813843,156.931931 306.220215,158.201782 304.610504,158.222427 
	C291.779846,158.387207 278.946106,158.312027 266.113312,158.317688 
	C262.446960,158.319305 258.780640,158.344711 254.211029,158.272949 
	C251.469803,158.262817 249.631821,158.338959 247.793839,158.415100 
z"/>
<path fill="#3E475C" opacity="1.000000" stroke="none" 
	d="
M314.927277,282.982941 
	C319.007629,283.321960 323.082916,283.845428 327.169495,283.956726 
	C333.286438,284.123352 339.413788,283.903809 345.531158,284.062897 
	C347.225342,284.106964 348.899780,284.910065 350.803772,285.695526 
	C350.447205,288.790070 349.870087,291.553986 348.670105,294.659668 
	C341.317780,295.021790 334.588318,295.042175 327.530518,294.984680 
	C323.043091,292.727905 318.857910,290.596588 314.743225,288.336761 
	C313.711517,287.770142 312.906464,286.790863 312.236145,285.813171 
	C313.292450,284.744415 314.109863,283.863678 314.927277,282.982941 
z"/>
<path fill="#3D3B4F" opacity="1.000000" stroke="none" 
	d="
M174.534607,255.998352 
	C175.302933,256.788910 175.640244,257.580048 176.078278,259.054047 
	C176.835312,262.139069 177.491608,264.541168 177.677032,267.034058 
	C167.474533,267.093262 157.742889,267.061737 148.011246,267.030212 
	C147.352463,263.669067 146.693680,260.307922 146.463715,256.500061 
	C152.915573,255.337601 158.938644,254.621887 164.961700,253.906158 
	C168.008987,254.603745 171.056290,255.301331 174.534607,255.998352 
z"/>
<path fill="#5EDD46" opacity="1.000000" stroke="none" 
	d="
M301.431885,190.955490 
	C299.761078,189.862534 298.558228,188.702560 297.263336,187.242706 
	C318.146027,186.854446 339.120850,186.728439 360.095337,186.770630 
	C361.359161,186.773163 362.620331,188.116272 363.882721,188.835587 
	C362.375061,189.503448 360.871765,190.741028 359.359039,190.752716 
	C340.206757,190.900589 321.053101,190.872040 301.431885,190.955490 
z"/>
<path fill="#3D4C62" opacity="1.000000" stroke="none" 
	d="
M155.002930,290.404846 
	C163.748672,290.224640 172.500870,290.449280 181.416595,291.091461 
	C177.993546,294.642456 174.406998,297.775909 170.541992,301.092834 
	C167.452087,305.866547 164.640610,310.456787 161.829132,315.046997 
	C159.555878,306.967896 157.282623,298.888824 155.002930,290.404846 
z"/>
<path fill="#5EDD46" opacity="1.000000" stroke="none" 
	d="
M204.390472,187.038025 
	C203.745178,188.317627 202.649597,189.511139 201.290100,190.862091 
	C183.413696,190.960007 165.801208,190.900314 148.188705,190.841263 
	C147.025391,190.837372 145.794739,191.073578 144.719223,190.765625 
	C143.791275,190.499924 143.039917,189.617493 142.210495,189.007721 
	C143.014755,188.310944 143.747940,187.492554 144.650986,186.964813 
	C145.160141,186.667282 145.949188,186.817276 146.612030,186.818665 
	C165.721436,186.858963 184.830811,186.906006 204.390472,187.038025 
z"/>
<path fill="#3D4C62" opacity="1.000000" stroke="none" 
	d="
M327.858856,295.062531 
	C334.588318,295.042175 341.317780,295.021790 348.513580,295.003723 
	C347.018127,302.787933 345.056335,310.569794 343.028320,318.750885 
	C342.962097,319.150085 342.531219,319.076538 342.298584,318.644897 
	C340.052948,313.792816 338.039978,309.372375 335.886169,304.648254 
	C333.116516,301.250549 330.487671,298.156555 327.858856,295.062531 
z"/>
<path fill="#5FE546" opacity="1.000000" stroke="none" 
	d="
M313.503906,206.949081 
	C312.228027,205.898315 311.416412,204.814865 310.459595,203.480942 
	C326.951019,203.127060 343.587616,202.986084 360.224152,202.993088 
	C361.525238,202.993637 362.825867,204.027618 364.126709,204.581314 
	C364.026215,205.332840 363.925751,206.084366 363.825256,206.835907 
	C347.206238,206.862732 330.587219,206.889557 313.503906,206.949081 
z"/>
<path fill="#5CD850" opacity="1.000000" stroke="none" 
	d="
M355.330872,271.640686 
	C346.611542,271.657379 338.292786,271.713989 329.982239,271.479980 
	C328.426331,271.436157 326.903137,270.229095 325.364868,269.558838 
	C326.942627,268.782776 328.503235,267.378937 330.101013,267.335297 
	C338.745178,267.099243 347.398529,267.199890 356.511108,267.119568 
	C359.276184,267.778473 361.578857,268.502228 363.881561,269.225983 
	C361.657013,269.968475 359.438171,270.729065 357.203156,271.438446 
	C356.744720,271.583923 356.225494,271.537842 355.330872,271.640686 
z"/>
<path fill="#5CD850" opacity="1.000000" stroke="none" 
	d="
M147.605743,267.097656 
	C157.742889,267.061737 167.474533,267.093262 177.935699,267.254425 
	C179.053314,268.862366 179.441422,270.340668 179.829544,271.818970 
	C170.221252,271.748169 160.612946,271.677399 150.546143,271.648743 
	C148.442307,271.548218 146.756989,271.576477 145.165421,271.204071 
	C144.065643,270.946777 143.095383,270.135895 142.067261,269.572388 
	C143.117065,268.795776 144.111420,267.920135 145.241653,267.287109 
	C145.755981,266.999054 146.539047,267.190918 147.605743,267.097656 
z"/>
<path fill="#5DD746" opacity="1.000000" stroke="none" 
	d="
M284.475403,174.844315 
	C282.322083,173.787659 280.632721,172.655960 278.723694,171.250702 
	C293.100616,170.875778 307.697235,170.738342 322.293762,170.747574 
	C323.359161,170.748245 324.423920,171.811539 325.488983,172.380783 
	C324.253082,173.160919 323.027130,174.600281 321.779755,174.619095 
	C309.501648,174.804230 297.220001,174.753250 284.475403,174.844315 
z"/>
<path fill="#60EA46" opacity="1.000000" stroke="none" 
	d="
M222.927155,170.897797 
	C221.808823,172.181274 220.196182,173.389328 218.285339,174.733032 
	C207.057083,174.787018 196.124496,174.805847 185.199234,174.532867 
	C183.182480,174.482483 181.195221,173.252075 179.194351,172.566299 
	C181.180832,171.948074 183.161972,170.816162 185.154663,170.795410 
	C197.579285,170.666138 210.006500,170.785446 222.927155,170.897797 
z"/>
<path fill="#60EA46" opacity="1.000000" stroke="none" 
	d="
M181.455765,219.032028 
	C181.516266,220.303192 181.113098,221.552917 180.441284,222.998138 
	C167.542099,222.257858 154.766739,224.013824 142.180664,222.251389 
	C142.122162,221.528656 142.063644,220.805923 142.005127,220.083176 
	C143.879959,219.721298 145.752243,219.062363 147.630005,219.046371 
	C158.750000,218.951721 169.871277,219.006226 181.455765,219.032028 
z"/>
<path fill="#5FE546" opacity="1.000000" stroke="none" 
	d="
M326.527588,239.019165 
	C325.786041,237.949860 325.507202,236.899048 325.216919,235.521957 
	C336.697296,235.151169 348.189575,235.045517 359.680145,235.142532 
	C361.055450,235.154129 362.421448,236.267517 363.791779,236.870209 
	C362.351501,237.596069 360.920959,238.927795 359.469360,238.951202 
	C348.645355,239.125671 337.817169,239.041031 326.527588,239.019165 
z"/>
<path fill="#5DD746" opacity="1.000000" stroke="none" 
	d="
M149.226242,158.316025 
	C146.603256,158.087952 144.447311,157.859726 141.611771,157.559555 
	C145.283630,153.429565 173.178452,153.035339 178.440567,156.664993 
	C173.639786,159.751602 168.674332,157.923035 164.099228,158.241440 
	C159.318680,158.574112 154.496994,158.315826 149.226242,158.316025 
z"/>
<path fill="#5FE546" opacity="1.000000" stroke="none" 
	d="
M176.336746,235.166931 
	C176.573776,236.262253 176.358292,237.320129 176.036514,238.687500 
	C164.684723,238.629822 153.347061,240.032257 142.176880,238.219040 
	C142.102127,237.584732 142.027390,236.950409 141.952637,236.316101 
	C143.448425,235.897980 144.941101,235.131500 146.440491,235.118210 
	C156.254272,235.031113 166.069489,235.106918 176.336746,235.166931 
z"/>
<path fill="#5DD746" opacity="1.000000" stroke="none" 
	d="
M339.246429,154.243469 
	C346.544922,154.247818 353.380646,154.135193 360.205109,154.361862 
	C361.457977,154.403473 362.665100,155.822571 363.893341,156.605835 
	C362.664490,157.173981 361.444977,158.209198 360.205261,158.233978 
	C352.543274,158.387146 344.874573,158.408524 337.213501,158.234955 
	C335.643372,158.199371 334.096222,157.150726 332.538483,156.569046 
	C334.119019,155.793991 335.681732,154.978287 337.292236,154.271545 
	C337.711487,154.087570 338.279877,154.243454 339.246429,154.243469 
z"/>
<path fill="#5FE546" opacity="1.000000" stroke="none" 
	d="
M164.939697,253.517242 
	C158.938644,254.621887 152.915573,255.337601 146.441605,256.113922 
	C144.597122,255.246063 143.203568,254.317612 141.178726,252.968582 
	C142.797134,252.046539 143.571671,251.229843 144.360504,251.215775 
	C150.180420,251.112030 156.006317,251.072723 161.822205,251.262207 
	C162.873184,251.296432 163.886810,252.476974 164.939697,253.517242 
z"/>
<path fill="#60EA46" opacity="1.000000" stroke="none" 
	d="
M350.991577,170.711060 
	C354.807678,170.728668 358.136261,170.623260 361.441956,170.850845 
	C362.270325,170.907867 363.024994,172.035019 363.813538,172.670334 
	C363.104187,173.229462 362.400146,174.266388 361.684662,174.274353 
	C353.890900,174.361145 346.094513,174.330368 338.301880,174.176453 
	C337.655884,174.163681 337.032257,173.020737 336.398224,172.402924 
	C337.113739,171.866058 337.809784,170.897552 338.547943,170.864304 
	C342.524719,170.685181 346.511963,170.738297 350.991577,170.711060 
z"/>
<path fill="#15328A" opacity="1.000000" stroke="none" 
	d="
M161.856171,315.359192 
	C164.640610,310.456787 167.452087,305.866547 170.886765,301.253052 
	C172.458008,301.536621 173.406021,301.843445 174.200500,302.460938 
	C170.732468,309.201233 167.417984,315.630829 164.103485,322.060425 
	C163.422867,320.584839 162.742279,319.109253 161.986069,317.278503 
	C161.901382,316.506012 161.892288,316.088715 161.856171,315.359192 
z"/>
<path fill="#60EA46" opacity="1.000000" stroke="none" 
	d="
M143.692215,174.775330 
	C142.814224,173.692154 142.356049,172.752060 141.742661,171.493469 
	C149.120941,171.493469 155.899750,171.493469 162.678574,171.493469 
	C162.738617,172.075714 162.798676,172.657959 162.858719,173.240204 
	C157.093231,176.865601 150.346252,174.265884 143.692215,174.775330 
z"/>
<path fill="#5FE546" opacity="1.000000" stroke="none" 
	d="
M151.078247,202.980225 
	C155.314850,203.113434 159.077499,203.246658 163.751129,203.412155 
	C160.183319,207.672272 145.610657,207.988129 140.830963,203.843338 
	C144.897797,203.484177 147.751038,203.232208 151.078247,202.980225 
z"/>
<path fill="#5EDD46" opacity="1.000000" stroke="none" 
	d="
M345.429260,251.788101 
	C350.700745,251.409775 355.666107,251.145065 360.622772,251.258865 
	C361.720184,251.284073 362.786896,252.646896 363.867706,253.393829 
	C362.841309,253.982834 361.835815,255.032593 360.784851,255.080261 
	C356.475525,255.275818 352.151733,255.208206 347.834473,255.149612 
	C345.884796,255.123138 343.891968,254.930740 345.429260,251.788101 
z"/>
<path fill="#5FE546" opacity="1.000000" stroke="none" 
	d="
M352.260742,218.984146 
	C356.453003,219.106216 360.187073,219.228317 363.921173,219.350403 
	C363.970032,220.078720 364.018890,220.807037 364.067780,221.535355 
	C362.868042,222.016815 361.688690,222.841019 360.464722,222.913696 
	C357.161438,223.109756 353.824493,223.167740 350.531464,222.902008 
	C349.156433,222.791016 347.858765,221.721695 346.525909,221.088104 
	C347.787567,220.387573 349.025055,219.636353 350.325195,219.016479 
	C350.730621,218.823196 351.305328,218.984955 352.260742,218.984146 
z"/>
<path fill="#5FE546" opacity="1.000000" stroke="none" 
	d="
M322.301819,223.125977 
	C321.174500,222.039413 320.521881,220.873749 319.863403,219.363464 
	C324.297211,219.011795 328.742157,218.888779 333.172485,219.088913 
	C334.137665,219.132507 335.050659,220.332153 335.987701,220.999359 
	C335.036835,221.658279 334.122925,222.812134 333.128418,222.886414 
	C329.692993,223.143005 326.229401,223.023315 322.301819,223.125977 
z"/>
<path fill="#5EDD46" opacity="1.000000" stroke="none" 
	d="
M190.516296,203.013824 
	C190.468430,204.215515 189.955276,205.384201 189.196640,206.775055 
	C185.619659,206.967438 182.275955,207.086411 178.964310,206.814728 
	C178.004761,206.735992 177.137131,205.537216 176.227356,204.851868 
	C177.169876,204.224365 178.084305,203.112289 179.059952,203.055679 
	C182.712799,202.843765 186.385666,202.976990 190.516296,203.013824 
z"/>
<path fill="#4B7945" opacity="1.000000" stroke="none" 
	d="
M247.856232,158.615051 
	C249.631821,158.338959 251.469803,158.262817 253.757294,158.300812 
	C254.206787,158.414932 254.082306,158.813278 254.019745,159.012878 
	C252.266678,159.196014 250.576172,159.179565 248.464569,159.189026 
	C248.043472,159.214935 247.918640,158.815018 247.856232,158.615051 
z"/>
<path fill="#C6D3E3" opacity="1.000000" stroke="none" 
	d="
M228.909485,409.776978 
	C214.127060,409.741272 199.344650,409.705597 184.272919,408.897217 
	C183.650436,403.992004 183.360596,399.855408 182.975403,395.727722 
	C182.082001,386.153534 181.017822,376.593597 180.254227,367.009430 
	C179.357925,355.760071 178.487274,344.500153 178.029968,333.227570 
	C177.747787,326.272278 182.289688,321.741180 189.301254,321.073547 
	C190.787949,320.931976 192.297394,321.019928 193.796371,321.018280 
	C237.936996,320.970215 282.077606,320.924164 326.218231,320.877808 
	C326.218231,320.877808 326.287109,320.699890 326.285339,321.155457 
	C321.676117,347.026001 309.909210,368.184021 289.108551,383.923737 
	C272.430359,396.543945 253.250702,403.332886 233.091354,407.839081 
	C231.626205,408.166565 230.300186,409.116455 228.909485,409.776978 
M190.974564,356.714935 
	C191.315506,360.669403 191.850143,364.618500 191.960007,368.579376 
	C192.254593,379.201508 192.708084,379.550568 203.177582,379.079834 
	C206.909317,378.912079 208.279388,377.418335 208.010376,373.900482 
	C207.291397,364.498352 206.775787,355.074615 205.735138,345.708862 
	C205.554352,344.081787 203.430634,341.739166 201.819168,341.358795 
	C193.466217,339.387146 189.117767,343.470062 190.086853,351.909302 
	C190.237457,353.220856 190.630646,354.504547 190.974564,356.714935 
M235.327805,379.189026 
	C236.671494,381.728241 237.726746,384.489624 239.454514,386.733032 
	C240.725891,388.383820 242.768143,390.227875 244.656952,390.463776 
	C249.652054,391.087555 254.766739,391.159760 259.799011,390.862366 
	C261.591156,390.756500 263.747681,389.322998 264.916748,387.845764 
	C266.888306,385.354523 268.446533,382.451508 269.736237,379.526611 
	C271.383911,375.789978 273.404144,371.946991 273.828461,367.995667 
	C274.838837,358.587006 268.935638,349.705750 260.324615,346.283112 
	C251.863800,342.920227 242.207642,345.296478 236.306763,352.193604 
	C229.910110,359.670166 229.415833,369.072357 235.327805,379.189026 
z"/>
<path fill="#8B93C2" opacity="1.000000" stroke="none" 
	d="
M229.360168,409.940033 
	C230.300186,409.116455 231.626205,408.166565 233.091354,407.839081 
	C253.250702,403.332886 272.430359,396.543945 289.108551,383.923737 
	C309.909210,368.184021 321.676117,347.026001 326.377014,321.181763 
	C329.953949,323.174103 331.218353,326.605408 330.861938,330.694153 
	C328.813080,354.199585 326.800354,377.708496 324.635590,401.203308 
	C323.914124,409.033539 322.410645,410.222626 314.591675,410.215576 
	C286.331390,410.190216 258.071106,410.142426 229.360168,409.940033 
z"/>
<path fill="#4A7285" opacity="1.000000" stroke="none" 
	d="
M333.874268,322.387329 
	C329.971832,316.634888 324.631561,314.485474 317.641754,314.680115 
	C304.488708,315.046387 291.317780,314.770660 277.734009,314.447144 
	C281.224884,311.764038 285.135956,309.395721 289.359161,306.894775 
	C295.063934,302.367645 300.409912,297.913574 305.883270,293.621887 
	C307.193024,292.594940 309.220154,291.156860 310.418945,291.526093 
	C319.289978,294.258240 327.339020,298.362854 331.818604,307.239014 
	C332.336029,312.457672 333.105164,317.422516 333.874268,322.387329 
z"/>
<path fill="#4B7386" opacity="1.000000" stroke="none" 
	d="
M224.749176,314.765411 
	C211.608948,314.772614 198.468307,314.719971 185.328598,314.806183 
	C175.075516,314.873474 169.558929,320.597198 170.121719,330.760040 
	C170.516220,337.884094 171.334946,344.984680 171.696747,352.268341 
	C169.548645,346.578583 167.668015,340.716217 165.842484,334.484955 
	C165.975555,333.120911 166.053558,332.125793 166.334717,330.801880 
	C167.003525,328.386139 167.489029,326.303314 167.931564,324.211426 
	C171.193939,308.790100 179.980942,298.162048 195.324646,293.100159 
	C200.696671,297.306061 205.767715,301.365326 210.985046,305.714966 
	C212.740768,307.099121 214.325302,308.231842 215.965042,309.278046 
	C218.875427,311.134857 221.819305,312.939148 224.749176,314.765411 
z"/>
<path fill="#4E5B6C" opacity="1.000000" stroke="none" 
	d="
M165.787384,334.853851 
	C167.668015,340.716217 169.548645,346.578583 171.668060,352.708740 
	C173.165054,366.341827 174.423248,379.707184 175.321091,393.512848 
	C172.892563,393.562042 170.834763,393.098175 168.753189,392.800842 
	C166.797607,392.521515 164.816925,392.418060 162.847275,392.237244 
	C162.392929,391.284363 161.938599,390.331482 161.269012,388.750092 
	C160.400833,381.229034 158.587814,374.203735 159.358154,367.474091 
	C160.614426,356.499176 163.556580,345.717224 165.787384,334.853851 
z"/>
<path fill="#C4D1E2" opacity="1.000000" stroke="none" 
	d="
M256.873688,420.735229 
	C234.271591,420.831665 211.669266,421.022980 189.067566,420.963989 
	C182.683533,420.947357 177.617676,416.805939 175.560486,410.415253 
	C177.063339,410.690155 178.662354,410.495270 179.407593,411.201416 
	C183.078094,414.679138 187.544342,414.473083 192.049561,414.470490 
	C216.317337,414.456512 240.585129,414.475464 265.256439,414.829163 
	C262.731201,417.028595 259.802429,418.881897 256.873688,420.735229 
z"/>
<path fill="#363E6D" opacity="1.000000" stroke="none" 
	d="
M340.131012,329.887665 
	C342.727997,342.010406 346.061676,354.033356 347.720642,366.283112 
	C349.480072,379.274628 344.523804,390.382629 334.418152,398.945282 
	C333.095734,400.065796 331.487610,400.849152 328.792297,402.564972 
	C329.541992,394.806732 330.168243,388.325867 331.174561,381.265503 
	C337.224152,373.826996 340.408905,365.997589 339.939026,357.052979 
	C339.621490,351.009155 338.644958,344.999939 337.977417,338.577820 
	C338.704803,335.416168 339.417908,332.651917 340.131012,329.887665 
z"/>
<path fill="#EBEEF5" opacity="1.000000" stroke="none" 
	d="
M326.009338,320.531799 
	C282.077606,320.924164 237.936996,320.970215 193.796371,321.018280 
	C192.297394,321.019928 190.787949,320.931976 189.301254,321.073547 
	C182.289688,321.741180 177.747787,326.272278 178.029968,333.227570 
	C178.487274,344.500153 179.357925,355.760071 180.254227,367.009430 
	C181.017822,376.593597 182.082001,386.153534 182.975403,395.727722 
	C183.360596,399.855408 183.650436,403.992004 183.992645,408.569061 
	C182.898193,406.971161 181.020584,405.004883 180.811020,402.874542 
	C178.724655,381.665131 176.913559,360.428589 175.024887,339.199738 
	C174.833069,337.043762 174.692291,334.881927 174.442413,332.732727 
	C173.367111,323.484039 177.391876,318.799622 186.626450,318.792389 
	C221.445053,318.765015 256.263702,318.780762 291.082336,318.780518 
	C300.245148,318.780426 309.409607,318.685455 318.569611,318.845428 
	C320.986969,318.887634 323.390533,319.717590 326.009338,320.531799 
z"/>
<path fill="#7F86BB" opacity="1.000000" stroke="none" 
	d="
M257.334961,420.865845 
	C259.802429,418.881897 262.731201,417.028595 265.706970,414.867859 
	C281.187592,414.485870 296.621216,414.396637 312.054962,414.345062 
	C317.024872,414.328461 322.064392,414.869781 326.110626,410.870300 
	C326.736206,410.251953 328.236481,410.518463 329.451111,410.360291 
	C327.998901,416.748474 322.374146,421.011932 315.104156,421.040344 
	C296.001892,421.115021 276.898926,421.022430 257.334961,420.865845 
z"/>
<path fill="#15328A" opacity="1.000000" stroke="none" 
	d="
M225.235992,314.837830 
	C221.819305,312.939148 218.875427,311.134857 215.965042,309.278046 
	C214.325302,308.231842 212.740768,307.099121 211.130905,305.394043 
	C211.790466,304.176239 212.450470,303.569794 213.458527,302.976440 
	C214.758652,302.734558 215.710709,302.479645 216.834915,302.178619 
	C214.971680,299.510681 213.415390,297.282257 212.284698,295.039032 
	C213.556168,294.983521 214.402039,294.942810 215.526703,295.075989 
	C220.193375,298.857330 224.581268,302.464813 228.982544,306.040283 
	C228.995926,306.008270 228.931931,306.035034 229.108551,306.285675 
	C229.858490,306.717072 230.431824,306.897827 230.997513,307.043945 
	C230.989883,307.009308 230.923477,307.034271 231.107758,307.282379 
	C231.879074,307.683197 232.466110,307.835938 233.285004,308.198486 
	C234.308212,308.639862 235.099594,308.871490 236.030502,309.293213 
	C236.170044,309.483337 236.603333,309.668182 236.603333,309.668182 
	C236.603333,309.668182 237.065598,309.577393 237.385971,309.665985 
	C238.148041,309.776031 238.589752,309.797485 239.299896,310.101807 
	C252.030685,314.044250 263.653320,311.312500 274.995911,306.094482 
	C276.715790,306.688721 278.342712,306.930664 280.261414,307.087219 
	C281.035126,306.663788 281.517059,306.325684 281.999359,305.994263 
	C281.999725,306.000946 281.986023,305.991302 282.324280,305.952209 
	C283.742004,305.599213 284.821472,305.285339 286.180664,305.112732 
	C287.322601,305.845154 288.184845,306.436279 289.047058,307.027374 
	C285.135956,309.395721 281.224884,311.764038 277.281342,314.448944 
	C260.073547,314.813751 242.898193,314.862000 225.235992,314.837830 
z"/>
<path fill="#4B586B" opacity="1.000000" stroke="none" 
	d="
M337.963165,338.975250 
	C338.644958,344.999939 339.621490,351.009155 339.939026,357.052979 
	C340.408905,365.997589 337.224152,373.826996 331.259125,380.861816 
	C331.647247,372.291138 332.330780,363.544617 333.299927,354.087036 
	C334.741364,348.607880 335.897217,343.839813 337.280579,339.047546 
	C337.508087,339.023285 337.963165,338.975250 337.963165,338.975250 
z"/>
<path fill="#A1A6B4" opacity="1.000000" stroke="none" 
	d="
M165.842468,334.484955 
	C163.556580,345.717224 160.614426,356.499176 159.358154,367.474091 
	C158.587814,374.203735 160.400833,381.229034 161.025223,388.538635 
	C155.037842,380.563477 154.558701,371.227264 156.433029,361.559204 
	C158.638885,350.181152 160.993134,338.831848 163.790115,327.407166 
	C164.908646,328.606384 165.520096,329.868500 166.131546,331.130646 
	C166.053558,332.125793 165.975555,333.120911 165.842468,334.484955 
z"/>
<path fill="#92B6C4" opacity="1.000000" stroke="none" 
	d="
M166.334717,330.801880 
	C165.520096,329.868500 164.908646,328.606384 164.033981,327.105225 
	C163.889587,325.531311 164.008392,324.196381 164.115341,322.460938 
	C167.417984,315.630829 170.732468,309.201233 174.480194,302.296509 
	C178.821152,296.529633 184.635101,294.229462 190.515305,292.201477 
	C191.781097,291.764954 193.508759,292.667694 195.023651,292.953491 
	C179.980942,298.162048 171.193939,308.790100 167.931564,324.211426 
	C167.489029,326.303314 167.003525,328.386139 166.334717,330.801880 
z"/>
<path fill="#38638D" opacity="1.000000" stroke="none" 
	d="
M337.977417,338.577820 
	C337.963165,338.975250 337.508087,339.023285 337.266113,338.626465 
	C336.399597,335.523010 335.775024,332.816376 335.150452,330.109772 
	C334.752289,327.781036 334.354126,325.452271 333.915100,322.755432 
	C333.105164,317.422516 332.336029,312.457672 332.048218,307.232117 
	C332.529541,306.971344 332.988953,307.005707 333.125214,307.328491 
	C335.554443,314.116699 337.847412,320.582123 340.140381,327.047546 
	C340.129211,327.758484 340.118042,328.469452 340.118958,329.534027 
	C339.417908,332.651917 338.704803,335.416168 337.977417,338.577820 
z"/>
<path fill="#363E6D" opacity="1.000000" stroke="none" 
	d="
M162.948166,392.553375 
	C164.816925,392.418060 166.797607,392.521515 168.753189,392.800842 
	C170.834763,393.098175 172.892563,393.562042 175.344299,393.913940 
	C175.727859,396.637970 175.727859,399.401276 175.727859,402.164551 
	C175.373947,402.540955 175.020050,402.917358 174.666138,403.293762 
	C170.793777,399.819031 166.921417,396.344269 162.948166,392.553375 
z"/>
<path fill="#15328A" opacity="1.000000" stroke="none" 
	d="
M340.351562,326.750244 
	C337.847412,320.582123 335.554443,314.116699 333.445251,307.284424 
	C334.428345,306.262360 335.227661,305.607147 336.026978,304.951965 
	C338.039978,309.372375 340.052948,313.792816 342.082275,318.613831 
	C341.586639,321.493896 341.074677,323.973450 340.351562,326.750244 
z"/>
<path fill="#4B7386" opacity="1.000000" stroke="none" 
	d="
M335.092529,330.534058 
	C335.775024,332.816376 336.399597,335.523010 337.038635,338.650696 
	C335.897217,343.839813 334.741364,348.607880 333.358582,353.648193 
	C333.765961,346.266418 334.400299,338.612396 335.092529,330.534058 
z"/>
<path fill="#AC3E52" opacity="1.000000" stroke="none" 
	d="
M212.008743,213.648102 
	C213.796997,211.381760 212.297531,210.631668 210.410706,209.711014 
	C207.746918,208.411240 205.041931,207.045074 202.740189,205.220734 
	C201.666336,204.369583 201.497757,202.376312 200.918839,200.900711 
	C202.606186,200.311737 204.508774,198.918839 205.936081,199.301025 
	C208.913086,200.098175 211.625931,201.861755 214.475891,203.165817 
	C215.319000,203.551605 216.257690,203.728546 217.769516,204.189163 
	C216.971115,200.336624 216.280319,197.003311 215.589523,193.669983 
	C216.099411,193.468094 216.609283,193.266190 217.119156,193.064285 
	C217.884720,194.611420 218.797638,196.105148 219.382172,197.717896 
	C220.316666,200.296173 221.444519,201.141907 224.064758,198.393188 
	C225.030457,198.112137 225.512268,198.170670 225.655014,197.977997 
	C233.860565,186.902176 247.272125,192.844040 257.470703,188.282120 
	C258.106812,187.997589 259.078827,188.486298 259.898163,188.585464 
	C266.266144,189.356461 272.634979,190.120132 279.003571,190.886063 
	C285.806793,192.857590 291.806671,196.174713 296.461700,201.604980 
	C297.923218,203.309875 299.091461,205.266220 300.873993,207.786102 
	C297.874969,207.786102 295.847992,207.786102 293.057648,207.786102 
	C293.902649,209.910019 294.529480,211.485535 295.153625,213.868057 
	C295.884369,229.718277 287.727631,231.968033 277.480042,232.816788 
	C272.627075,233.218735 267.522247,232.422256 262.728668,231.315109 
	C252.725174,229.004608 242.875763,226.035660 232.917389,223.517822 
	C227.369156,222.115021 225.043777,224.759796 226.620071,230.319290 
	C227.116409,232.069794 227.577362,233.830338 227.722046,235.410477 
	C225.267715,232.809601 223.242691,230.288803 220.981445,228.001541 
	C219.918274,226.926117 218.400711,226.299896 216.963440,225.133896 
	C215.928375,224.785202 214.271637,224.591080 214.223770,224.788055 
	C213.677170,227.036499 213.285431,229.334366 213.025146,231.638550 
	C212.083145,239.978241 210.161865,247.971436 205.126678,254.915909 
	C204.415726,252.210007 203.704773,249.504089 202.994354,245.943481 
	C202.976959,234.215103 203.409546,223.479446 211.855499,215.091660 
	C212.121796,214.827179 211.967148,214.138840 212.008743,213.648102 
M266.113312,221.224609 
	C266.381287,222.559814 266.184357,224.437866 266.998596,225.135193 
	C270.325684,227.984543 281.097382,227.716827 284.447449,224.868835 
	C285.190002,224.237549 285.459381,223.049698 286.168243,221.694473 
	C279.435089,219.186844 273.165131,219.550339 266.113312,221.224609 
z"/>
<path fill="#762B5C" opacity="1.000000" stroke="none" 
	d="
M228.054504,235.586304 
	C227.577362,233.830338 227.116409,232.069794 226.620071,230.319290 
	C225.043777,224.759796 227.369156,222.115021 232.917389,223.517822 
	C242.875763,226.035660 252.725174,229.004608 262.728668,231.315109 
	C267.522247,232.422256 272.627075,233.218735 277.480042,232.816788 
	C287.727631,231.968033 295.884369,229.718277 295.195740,214.210999 
	C300.641083,219.826843 301.293549,227.492157 301.839630,234.990219 
	C302.509796,244.192398 300.479523,253.022003 296.036774,261.874695 
	C294.709229,261.936523 293.727875,261.455139 292.612061,260.647156 
	C291.397308,256.517761 290.155365,252.751556 289.284271,248.901443 
	C288.483795,245.363708 288.313721,241.905487 293.146362,240.852005 
	C293.755157,240.719284 294.128632,239.507294 295.421234,237.600021 
	C292.121094,238.284821 290.078827,238.555954 288.129639,239.138489 
	C277.564667,242.296005 266.749481,243.496658 256.329498,239.691803 
	C248.967621,237.003586 242.284439,232.467331 235.265503,228.819122 
	C234.057770,228.191391 232.685898,227.879486 231.389832,227.421692 
	C231.220673,228.808548 230.838882,230.210815 230.937912,231.578262 
	C231.053299,233.171478 231.589233,234.734253 232.120316,237.102310 
	C230.334488,236.436447 229.194489,236.011368 228.054504,235.586304 
z"/>
<path fill="#4B586B" opacity="1.000000" stroke="none" 
	d="
M279.086914,186.357773 
	C268.144043,183.382370 257.223938,180.887100 245.679779,182.852859 
	C236.919373,184.344574 229.008087,187.224304 222.936279,193.299469 
	C220.367569,191.459854 218.026428,189.783234 215.507812,187.752869 
	C222.741043,181.817383 229.998398,176.014969 237.611542,170.724564 
	C243.585464,166.573242 250.376587,164.397308 257.821106,164.960510 
	C261.478271,166.744370 265.135437,168.528229 268.712708,170.660797 
	C268.422028,171.164566 268.211212,171.319611 268.000427,171.474655 
	C268.128540,171.517609 268.313019,171.636353 268.374878,171.590286 
	C268.627075,171.402573 268.841797,171.164429 269.070312,170.944870 
	C269.710754,171.098877 270.351227,171.252884 270.939209,171.823364 
	C271.225922,173.635223 271.229675,175.248093 271.967041,176.385239 
	C274.187012,179.808823 276.692688,183.047180 279.086914,186.357773 
z"/>
<path fill="#4E5B6C" opacity="1.000000" stroke="none" 
	d="
M198.566055,206.881287 
	C201.172241,208.585922 203.778427,210.290543 206.799271,212.266388 
	C195.151337,223.537888 197.393768,237.261566 199.376724,249.469849 
	C196.172043,252.910248 193.659271,255.607849 190.606628,258.652649 
	C187.395462,258.997498 184.724182,258.995148 181.983276,258.530029 
	C180.404037,238.708267 187.302704,222.084793 198.566055,206.881287 
z"/>
<path fill="#2F366E" opacity="1.000000" stroke="none" 
	d="
M310.861298,257.045990 
	C308.956421,255.286987 306.943756,253.626282 305.202972,251.717606 
	C304.561615,251.014404 304.201935,249.681015 304.323730,248.711700 
	C305.874054,236.370316 305.966125,224.237976 299.794586,213.371017 
	C301.944305,212.417206 303.877350,211.559509 306.188080,210.519577 
	C312.749329,219.681152 317.281677,229.765640 318.882843,240.877350 
	C319.595947,245.826141 319.032501,250.958893 318.625610,256.005737 
	C315.755615,256.350861 313.308472,256.698425 310.861298,257.045990 
z"/>
<path fill="#4B586B" opacity="1.000000" stroke="none" 
	d="
M319.048431,256.008148 
	C319.032501,250.958893 319.595947,245.826141 318.882843,240.877350 
	C317.281677,229.765640 312.749329,219.681152 306.257721,210.182602 
	C301.131256,203.833801 296.312836,197.639709 291.093964,190.959671 
	C287.790985,186.779755 284.888458,183.085800 281.985931,179.391830 
	C303.980042,197.479782 320.142639,219.043503 322.685669,248.527695 
	C322.961273,251.723404 321.888702,255.035400 320.971130,258.638306 
	C320.309204,258.977936 320.117554,258.972687 319.896301,258.657471 
	C319.593964,257.567749 319.321198,256.787933 319.048431,256.008148 
z"/>
<path fill="#A1A6B4" opacity="1.000000" stroke="none" 
	d="
M257.526459,164.688705 
	C250.376587,164.397308 243.585464,166.573242 237.611542,170.724564 
	C229.998398,176.014969 222.741043,181.817383 215.158600,187.683853 
	C213.110428,190.246933 211.234009,192.525253 208.900894,195.358093 
	C208.166260,195.358093 206.168930,195.358093 202.918320,195.358093 
	C215.327774,182.008255 227.694885,170.603424 244.011719,164.786697 
	C247.960541,163.379028 252.801239,164.473190 257.526459,164.688705 
z"/>
<path fill="#A1A6B4" opacity="1.000000" stroke="none" 
	d="
M198.492599,206.519485 
	C187.302704,222.084793 180.404037,238.708267 181.951050,258.934448 
	C181.995102,260.882324 182.001770,261.963013 181.799820,262.792847 
	C181.068939,261.359100 180.546661,260.176178 180.024399,258.993225 
	C176.900925,238.077087 184.791656,220.478287 196.521011,203.465668 
	C197.348938,204.639877 197.884048,205.398788 198.492599,206.519485 
z"/>
<path fill="#0D187D" opacity="1.000000" stroke="none" 
	d="
M292.746490,260.973724 
	C293.727875,261.455139 294.709229,261.936523 295.925232,262.209625 
	C296.803955,262.435211 297.448029,262.869110 298.173889,263.958862 
	C297.948456,266.368835 297.641205,268.122894 297.226044,270.311096 
	C297.118134,273.105988 297.118134,275.466736 297.118134,277.827515 
	C297.700500,278.070831 298.282867,278.314148 298.865234,278.557465 
	C300.573273,276.036865 302.281342,273.516296 304.167969,270.695435 
	C305.514160,267.600983 306.681854,264.806824 307.849518,262.012634 
	C308.615906,262.005188 309.382294,261.997742 310.544434,262.376465 
	C308.630493,267.842072 306.320770,272.921509 303.709747,278.161255 
	C300.550476,281.509277 295.068573,281.864044 293.690247,286.940735 
	C292.831818,286.453400 292.309174,286.037109 291.830078,285.233521 
	C293.297791,276.944366 296.973389,268.771240 289.070007,261.746643 
	C289.020294,261.506195 288.850494,261.045441 289.242126,261.029694 
	C290.671326,261.000549 291.708893,260.987152 292.746490,260.973724 
z"/>
<path fill="#E4C1A0" opacity="1.000000" stroke="none" 
	d="
M194.050232,259.969788 
	C195.059525,258.331726 195.733124,255.992996 197.192276,255.293930 
	C198.220886,254.801147 200.316071,256.534546 202.056168,258.005585 
	C206.400177,264.651001 204.451691,271.615295 205.097076,278.130371 
	C204.478271,278.228699 204.231293,278.271393 203.683899,278.132996 
	C196.493774,273.919098 195.312851,266.923248 194.050232,259.969788 
z"/>
<path fill="#4D6377" opacity="1.000000" stroke="none" 
	d="
M182.008423,263.043671 
	C182.001770,261.963013 181.995102,260.882324 182.020660,259.397217 
	C184.724182,258.995148 187.395462,258.997498 190.509552,258.999451 
	C190.989471,259.161743 191.026581,259.324402 191.063675,260.144714 
	C193.072266,266.523071 195.080872,272.243805 196.701599,277.976257 
	C194.509323,278.709808 192.704895,279.431671 190.642227,279.931610 
	C187.675476,274.385132 184.966980,269.060608 182.284485,263.630005 
	C182.239822,263.324463 182.124008,263.140900 181.990738,262.980225 
	C182.018433,262.987183 182.008423,263.043671 182.008423,263.043671 
z"/>
<path fill="#D19DAA" opacity="1.000000" stroke="none" 
	d="
M278.852509,190.561005 
	C272.634979,190.120132 266.266144,189.356461 259.898163,188.585464 
	C259.078827,188.486298 258.106812,187.997589 257.470703,188.282120 
	C247.272125,192.844040 233.860565,186.902176 225.655014,197.977997 
	C225.512268,198.170670 225.030457,198.112137 224.333664,198.170441 
	C228.789673,190.384186 236.677734,187.688705 244.962204,186.405167 
	C256.460663,184.623703 267.831299,185.650513 278.852509,190.561005 
z"/>
<path fill="#304076" opacity="1.000000" stroke="none" 
	d="
M304.011047,278.000946 
	C306.320770,272.921509 308.630493,267.842072 310.927582,262.369019 
	C310.918671,260.604919 310.922363,259.234467 310.893677,257.455017 
	C313.308472,256.698425 315.755615,256.350861 318.625610,256.005737 
	C319.321198,256.787933 319.593964,257.567749 319.649628,258.904419 
	C316.628601,266.325165 313.824677,273.188965 311.015259,280.024170 
	C311.009796,279.995575 311.060577,280.024078 310.720825,280.009949 
	C309.929047,280.021729 309.476990,280.047638 308.840271,279.763977 
	C307.107422,278.969879 305.559235,278.485413 304.011047,278.000946 
z"/>
<path fill="#762B5C" opacity="1.000000" stroke="none" 
	d="
M205.104950,255.237061 
	C210.161865,247.971436 212.083145,239.978241 213.025146,231.638550 
	C213.285431,229.334366 213.677170,227.036499 214.223770,224.788055 
	C214.271637,224.591080 215.928375,224.785202 216.941956,225.522797 
	C214.973587,236.063751 212.901047,245.879578 210.562653,255.909973 
	C208.474426,255.910309 209.517319,262.569916 205.867249,257.970917 
	C205.605911,257.166687 205.344559,256.362457 205.104950,255.237061 
z"/>
<path fill="#EBBE9A" opacity="1.000000" stroke="none" 
	d="
M297.333954,269.877014 
	C297.641205,268.122894 297.948456,266.368835 298.374512,264.301697 
	C299.957367,261.086761 301.421448,258.184875 302.944275,255.166519 
	C307.165649,255.185547 307.175903,258.433197 307.774261,261.641846 
	C306.681854,264.806824 305.514160,267.600983 303.838318,270.731628 
	C301.331421,270.671021 299.332672,270.274017 297.333954,269.877014 
z"/>
<path fill="#0D187D" opacity="1.000000" stroke="none" 
	d="
M182.258484,263.736084 
	C184.966980,269.060608 187.675476,274.385132 190.776291,280.209290 
	C191.491333,281.464600 191.814056,282.220245 191.811676,283.113312 
	C190.584885,283.536957 189.683182,283.823212 188.781464,284.109436 
	C186.014328,280.119141 183.247192,276.128845 180.154800,271.978760 
	C179.441422,270.340668 179.053314,268.862366 178.406555,267.163696 
	C177.491608,264.541168 176.835312,262.139069 176.151154,259.369507 
	C177.162689,259.002777 178.202087,259.003510 179.632935,258.998718 
	C180.546661,260.176178 181.068939,261.359100 181.799820,262.792847 
	C182.008423,263.043671 182.018433,262.987183 182.069580,263.169250 
	C182.120728,263.351318 182.258484,263.736084 182.258484,263.736084 
z"/>
<path fill="#0D187D" opacity="1.000000" stroke="none" 
	d="
M314.995300,282.637451 
	C314.109863,283.863678 313.292450,284.744415 311.891541,285.806030 
	C310.221985,285.658875 309.135925,285.330841 308.057129,284.752502 
	C308.065521,284.335236 308.066681,284.168243 308.035522,283.996429 
	C308.003204,283.991577 308.002167,284.056885 308.232330,283.942017 
	C308.659821,283.550293 308.857117,283.273468 309.024689,283.000000 
	C308.994934,283.003387 309.020508,283.057526 309.281067,282.879150 
	C310.047913,281.808502 310.554230,280.916290 311.060547,280.024078 
	C311.060577,280.024078 311.009796,279.995575 311.305634,279.847137 
	C314.609131,274.116180 317.616760,268.533691 320.624420,262.951172 
	C321.545654,263.213684 322.466919,263.476227 323.717102,263.893921 
	C321.051819,270.130066 318.057556,276.210999 314.995300,282.637451 
z"/>
<path fill="#2F366E" opacity="1.000000" stroke="none" 
	d="
M281.923279,179.297333 
	C284.888458,183.085800 287.790985,186.779755 290.809235,190.793594 
	C287.149719,189.653809 283.374512,188.194153 279.343079,186.546143 
	C276.692688,183.047180 274.187012,179.808823 271.967041,176.385239 
	C271.229675,175.248093 271.225922,173.635223 271.202118,172.032867 
	C271.517487,171.825897 271.738892,171.861618 271.909882,172.225494 
	C272.735718,173.050659 273.390533,173.511948 274.045380,173.973236 
	C274.045380,173.973236 273.993134,173.989044 274.074066,174.306671 
	C275.118896,175.072113 276.082825,175.519928 277.046722,175.967728 
	C277.046722,175.967728 276.994110,175.990494 277.053955,176.338257 
	C278.563782,177.446121 280.013824,178.206238 281.463837,178.966354 
	C281.463837,178.966354 281.860657,179.202820 281.923279,179.297333 
z"/>
<path fill="#0D187D" opacity="1.000000" stroke="none" 
	d="
M205.496094,257.983643 
	C209.517319,262.569916 208.474426,255.910309 210.661987,256.261292 
	C211.732468,256.950104 212.437729,257.502167 213.010361,258.357239 
	C212.199783,259.748901 211.521835,260.837585 210.525192,262.105042 
	C209.691238,267.485565 209.175964,272.687256 208.261475,277.909882 
	C207.064484,277.978790 206.266708,278.026794 205.468933,278.074768 
	C204.451691,271.615295 206.400177,264.651001 202.162048,258.372040 
	C203.139526,258.003418 204.132233,257.999908 205.496094,257.983643 
z"/>
<path fill="#D19DAA" opacity="1.000000" stroke="none" 
	d="
M211.661194,213.749710 
	C211.967148,214.138840 212.121796,214.827179 211.855499,215.091660 
	C203.409546,223.479446 202.976959,234.215103 202.944077,245.548767 
	C198.319794,233.807785 201.965027,219.886658 211.661194,213.749710 
z"/>
<path fill="#0D187D" opacity="1.000000" stroke="none" 
	d="
M197.089478,277.964569 
	C195.080872,272.243805 193.072266,266.523071 191.123489,260.387726 
	C191.899490,259.980316 192.615662,259.987518 193.691040,259.982239 
	C195.312851,266.923248 196.493774,273.919098 203.684418,278.502380 
	C203.977188,279.797180 203.969009,280.541534 203.602356,281.234833 
	C201.192413,280.110687 199.140945,279.037628 197.089478,277.964569 
z"/>
<path fill="#4D6377" opacity="1.000000" stroke="none" 
	d="
M320.711365,262.559723 
	C317.616760,268.533691 314.609131,274.116180 311.311096,279.875732 
	C313.824677,273.188965 316.628601,266.325165 319.679199,259.214386 
	C320.117554,258.972687 320.309204,258.977936 320.789001,258.983673 
	C320.984192,260.045532 320.891266,261.106903 320.711365,262.559723 
z"/>
<path fill="#4B586B" opacity="1.000000" stroke="none" 
	d="
M281.223877,178.706955 
	C280.013824,178.206238 278.563782,177.446121 277.070740,176.314957 
	C278.346466,176.778458 279.665192,177.613007 281.223877,178.706955 
z"/>
<path fill="#4B586B" opacity="1.000000" stroke="none" 
	d="
M276.911835,175.675858 
	C276.082825,175.519928 275.118896,175.072113 274.090454,174.284790 
	C274.942902,174.424850 275.859924,174.904419 276.911835,175.675858 
z"/>
<path fill="#4B586B" opacity="1.000000" stroke="none" 
	d="
M273.941803,173.690414 
	C273.390533,173.511948 272.735718,173.050659 272.013397,172.268631 
	C272.576691,172.434464 273.207458,172.921021 273.941803,173.690414 
z"/>
<path fill="#0D2586" opacity="1.000000" stroke="none" 
	d="
M188.887329,284.433838 
	C189.683182,283.823212 190.584885,283.536957 192.092285,283.279968 
	C199.502136,289.860596 206.306305,296.411957 213.110474,302.963348 
	C212.450470,303.569794 211.790466,304.176239 210.984619,305.103638 
	C205.767715,301.365326 200.696671,297.306061 195.324646,293.100159 
	C193.508759,292.667694 191.781097,291.764954 190.515305,292.201477 
	C184.635101,294.229462 178.821152,296.529633 174.633759,301.985779 
	C173.406021,301.843445 172.458008,301.536621 171.165222,301.069580 
	C174.406998,297.775909 177.993546,294.642456 181.800278,291.259705 
	C183.962418,290.209595 186.109467,289.691345 187.762131,288.491882 
	C188.622543,287.867462 188.610916,286.041473 188.887329,284.433838 
z"/>
<path fill="#0D2586" opacity="1.000000" stroke="none" 
	d="
M308.049896,285.002808 
	C309.135925,285.330841 310.221985,285.658875 311.652618,285.994080 
	C312.906464,286.790863 313.711517,287.770142 314.743225,288.336761 
	C318.857910,290.596588 323.043091,292.727905 327.530518,294.984680 
	C330.487671,298.156555 333.116516,301.250549 335.886169,304.648254 
	C335.227661,305.607147 334.428345,306.262360 333.309021,306.961639 
	C332.988953,307.005707 332.529541,306.971344 332.299927,306.978241 
	C327.339020,298.362854 319.289978,294.258240 310.418945,291.526093 
	C309.220154,291.156860 307.193024,292.594940 305.883270,293.621887 
	C300.409912,297.913574 295.063934,302.367645 289.359161,306.894775 
	C288.184845,306.436279 287.322601,305.845154 286.375732,304.834229 
	C287.882477,303.268250 289.633728,302.289124 291.036896,300.946289 
	C296.421112,295.793610 301.693634,290.524261 307.264648,285.211487 
	C307.697632,285.083954 307.873779,285.043365 308.049896,285.002808 
z"/>
<path fill="#D8E0EB" opacity="1.000000" stroke="none" 
	d="
M190.943115,356.258026 
	C190.630646,354.504547 190.237457,353.220856 190.086853,351.909302 
	C189.117767,343.470062 193.466217,339.387146 201.819168,341.358795 
	C203.430634,341.739166 205.554352,344.081787 205.735138,345.708862 
	C206.775787,355.074615 207.291397,364.498352 208.010376,373.900482 
	C208.279388,377.418335 206.909317,378.912079 203.177582,379.079834 
	C192.708084,379.550568 192.254593,379.201508 191.960007,368.579376 
	C191.850143,364.618500 191.315506,360.669403 190.943115,356.258026 
z"/>
<path fill="#13147D" opacity="1.000000" stroke="none" 
	d="
M235.124100,378.877502 
	C229.415833,369.072357 229.910110,359.670166 236.306763,352.193604 
	C242.207642,345.296478 251.863800,342.920227 260.324615,346.283112 
	C268.935638,349.705750 274.838837,358.587006 273.828461,367.995667 
	C273.404144,371.946991 271.383911,375.789978 269.736237,379.526611 
	C268.446533,382.451508 266.888306,385.354523 264.916748,387.845764 
	C263.747681,389.322998 261.591156,390.756500 259.799011,390.862366 
	C254.766739,391.159760 249.652054,391.087555 244.656952,390.463776 
	C242.768143,390.227875 240.725891,388.383820 239.454514,386.733032 
	C237.726746,384.489624 236.671494,381.728241 235.124100,378.877502 
M236.538986,374.593567 
	C239.107407,378.630035 241.675827,382.666534 244.189346,386.616730 
	C246.053726,386.701721 248.186249,386.798981 250.579681,386.908112 
	C251.017242,386.011322 251.555084,384.908905 252.086807,383.819122 
	C253.267975,385.139740 254.243301,386.230194 255.218613,387.320648 
	C256.083466,386.370087 256.948303,385.419556 257.813141,384.468994 
	C257.395508,384.818237 256.977905,385.167511 256.560272,385.516754 
	C257.814209,386.177887 259.068176,386.838989 260.322144,387.500092 
	C260.928497,386.321136 261.475647,385.106659 262.156494,383.972412 
	C262.970367,382.616547 263.712006,381.142517 264.810242,380.045349 
	C269.086029,375.773865 271.157837,370.695740 270.433746,364.702698 
	C269.513916,357.089844 265.371887,351.712463 258.134583,349.180847 
	C251.232529,346.766479 244.894669,348.326569 239.800156,353.551880 
	C234.083450,359.415314 233.359558,366.392456 236.538986,374.593567 
z"/>
<path fill="#DBC2A4" opacity="1.000000" stroke="none" 
	d="
M235.890961,309.103088 
	C235.099594,308.871490 234.308212,308.639862 233.075348,307.977783 
	C232.063721,307.376282 231.493591,307.205292 230.923477,307.034271 
	C230.923477,307.034271 230.989883,307.009308 230.814117,306.798401 
	C230.069534,306.403320 229.500732,306.219177 228.931931,306.035034 
	C228.931931,306.035034 228.995926,306.008270 228.953766,305.693176 
	C225.931396,302.259277 222.951187,299.140503 220.442444,296.014832 
	C229.934753,297.609467 239.159454,292.712372 248.154449,296.903687 
	C249.344360,297.458160 251.119812,297.049133 252.550995,296.743774 
	C260.132324,295.126282 267.658112,295.592743 274.993134,297.395935 
	C267.043091,304.846466 257.719757,308.228790 247.323547,309.035919 
	C244.555939,309.250793 241.795288,309.555511 239.031448,309.818970 
	C238.589752,309.797485 238.148041,309.776031 237.240860,309.487671 
	C236.500824,309.029480 236.206024,308.990265 235.890961,309.103088 
z"/>
<path fill="#9B929C" opacity="1.000000" stroke="none" 
	d="
M239.299896,310.101807 
	C241.795288,309.555511 244.555939,309.250793 247.323547,309.035919 
	C257.719757,308.228790 267.043091,304.846466 275.266052,297.216675 
	C278.100372,294.152283 280.477814,291.553711 283.251221,289.022034 
	C285.504456,289.412628 287.361694,289.736389 289.136047,290.405029 
	C284.336456,295.747375 279.619720,300.744781 274.903015,305.742218 
	C263.653320,311.312500 252.030685,314.044250 239.299896,310.101807 
z"/>
<path fill="#4A6A7E" opacity="1.000000" stroke="none" 
	d="
M213.458527,302.976440 
	C206.306305,296.411957 199.502136,289.860596 192.417389,283.142548 
	C191.814056,282.220245 191.491333,281.464600 191.034546,280.431274 
	C192.704895,279.431671 194.509323,278.709808 196.701599,277.976257 
	C199.140945,279.037628 201.192413,280.110687 203.856949,281.445923 
	C205.314957,283.007568 206.253647,284.256622 206.985886,285.616821 
	C208.663834,288.733673 210.241013,291.904755 211.859100,295.053833 
	C213.415390,297.282257 214.971680,299.510681 216.834915,302.178619 
	C215.710709,302.479645 214.758652,302.734558 213.458527,302.976440 
z"/>
<path fill="#314D81" opacity="1.000000" stroke="none" 
	d="
M307.007812,285.298401 
	C301.693634,290.524261 296.421112,295.793610 291.036896,300.946289 
	C289.633728,302.289124 287.882477,303.268250 286.096008,304.692932 
	C284.821472,305.285339 283.742004,305.599213 282.362762,305.609436 
	C283.654968,303.436768 285.498260,301.724884 286.785950,299.665558 
	C289.360321,295.548340 291.630310,291.240753 294.026001,287.011780 
	C295.068573,281.864044 300.550476,281.509277 303.709778,278.161255 
	C305.559235,278.485413 307.107422,278.969879 308.837311,280.135132 
	C309.019531,281.563110 309.020020,282.310303 309.020508,283.057526 
	C309.020508,283.057526 308.994934,283.003387 308.805603,283.129822 
	C308.411560,283.523102 308.206848,283.790009 308.002167,284.056885 
	C308.002167,284.056885 308.003204,283.991577 307.797516,284.155121 
	C307.397156,284.645264 307.202484,284.971832 307.007812,285.298401 
z"/>
<path fill="#D4CEC8" opacity="1.000000" stroke="none" 
	d="
M219.970978,296.021698 
	C222.951187,299.140503 225.931396,302.259277 228.940399,305.725159 
	C224.581268,302.464813 220.193375,298.857330 215.408905,294.745422 
	C212.895142,288.790314 210.777924,283.339661 208.660706,277.888977 
	C209.175964,272.687256 209.691238,267.485565 210.559509,262.511963 
	C210.946304,263.834442 210.980103,264.928802 210.995285,266.483521 
	C211.363937,271.958527 211.751221,276.973206 212.252838,282.323486 
	C214.901764,287.113312 217.436371,291.567505 219.970978,296.021698 
z"/>
<path fill="#112888" opacity="1.000000" stroke="none" 
	d="
M293.690247,286.940735 
	C291.630310,291.240753 289.360321,295.548340 286.785950,299.665558 
	C285.498260,301.724884 283.654968,303.436768 282.024475,305.648560 
	C281.986023,305.991302 281.999725,306.000946 281.687988,306.018921 
	C280.907410,306.415466 280.438538,306.794037 279.969666,307.172577 
	C278.342712,306.930664 276.715790,306.688721 274.995911,306.094482 
	C279.619720,300.744781 284.336456,295.747375 289.368347,290.180298 
	C290.384521,288.280701 291.085541,286.950775 291.786530,285.620850 
	C292.309174,286.037109 292.831818,286.453400 293.690247,286.940735 
z"/>
<path fill="#141F82" opacity="1.000000" stroke="none" 
	d="
M208.261475,277.909882 
	C210.777924,283.339661 212.895142,288.790314 215.130142,294.571533 
	C214.402039,294.942810 213.556168,294.983521 212.284698,295.039032 
	C210.241013,291.904755 208.663834,288.733673 206.985886,285.616821 
	C206.253647,284.256622 205.314957,283.007568 204.215424,281.497009 
	C203.969009,280.541534 203.977188,279.797180 203.984848,278.683411 
	C204.231293,278.271393 204.478271,278.228699 205.097076,278.130371 
	C206.266708,278.026794 207.064484,277.978790 208.261475,277.909882 
z"/>
<path fill="#D4CEC8" opacity="1.000000" stroke="none" 
	d="
M231.107758,307.282379 
	C231.493591,307.205292 232.063721,307.376282 232.843491,307.768005 
	C232.466110,307.835938 231.879074,307.683197 231.107758,307.282379 
z"/>
<path fill="#314D81" opacity="1.000000" stroke="none" 
	d="
M280.261414,307.087219 
	C280.438538,306.794037 280.907410,306.415466 281.687622,306.012238 
	C281.517059,306.325684 281.035126,306.663788 280.261414,307.087219 
z"/>
<path fill="#D4CEC8" opacity="1.000000" stroke="none" 
	d="
M229.108551,306.285675 
	C229.500732,306.219177 230.069534,306.403320 230.821747,306.833008 
	C230.431824,306.897827 229.858490,306.717072 229.108551,306.285675 
z"/>
<path fill="#9B929C" opacity="1.000000" stroke="none" 
	d="
M236.030502,309.293213 
	C236.206024,308.990265 236.500824,309.029480 236.920486,309.399078 
	C237.065598,309.577393 236.603333,309.668182 236.603333,309.668182 
	C236.603333,309.668182 236.170044,309.483337 236.030502,309.293213 
z"/>
<path fill="#090673" opacity="1.000000" stroke="none" 
	d="
M213.142990,258.054260 
	C212.437729,257.502167 211.732468,256.950104 210.927856,256.046692 
	C212.901047,245.879578 214.973587,236.063751 217.067581,225.859039 
	C218.400711,226.299896 219.918274,226.926117 220.981445,228.001541 
	C223.242691,230.288803 225.267715,232.809601 227.722031,235.410492 
	C229.194489,236.011368 230.334488,236.436447 232.120316,237.102310 
	C231.589233,234.734253 231.053299,233.171478 230.937912,231.578262 
	C230.838882,230.210815 231.220673,228.808548 231.389832,227.421692 
	C232.685898,227.879486 234.057770,228.191391 235.265503,228.819122 
	C242.284439,232.467331 248.967621,237.003586 256.329498,239.691803 
	C266.749481,243.496658 277.564667,242.296005 288.129639,239.138489 
	C290.078827,238.555954 292.121094,238.284821 295.421234,237.600021 
	C294.128632,239.507294 293.755157,240.719284 293.146362,240.852005 
	C288.313721,241.905487 288.483795,245.363708 289.284271,248.901443 
	C290.155365,252.751556 291.397308,256.517761 292.612061,260.647156 
	C291.708893,260.987152 290.671326,261.000549 288.912537,260.828949 
	C287.116577,255.053696 286.041870,249.463455 284.960297,243.837540 
	C281.658112,244.380142 278.888245,244.835266 275.655792,245.185577 
	C260.753326,246.252945 247.928436,241.701126 235.905807,233.828735 
	C235.675491,233.724411 235.526077,233.810440 235.376663,233.896484 
	C235.602554,233.905807 235.828445,233.915146 235.893127,234.294250 
	C236.574509,236.547348 237.417114,238.430649 238.471252,240.786758 
	C230.449951,241.963257 224.939880,238.355698 220.415527,233.951614 
	C218.275589,241.543549 216.222229,248.828415 214.137146,256.091156 
	C214.105423,256.069031 214.095856,256.145782 213.846710,256.124237 
	C213.476746,256.217255 213.355957,256.331818 213.235168,256.446381 
	C213.471512,256.651398 213.707855,256.856415 213.933426,257.302307 
	C213.752914,257.851105 213.493027,258.021454 213.142990,258.054260 
z"/>
<path fill="#BB6373" opacity="1.000000" stroke="none" 
	d="
M266.477661,221.069641 
	C273.165131,219.550339 279.435089,219.186844 286.168243,221.694473 
	C285.459381,223.049698 285.190002,224.237549 284.447449,224.868835 
	C281.097382,227.716827 270.325684,227.984543 266.998596,225.135193 
	C266.184357,224.437866 266.381287,222.559814 266.477661,221.069641 
z"/>
<path fill="#2F366E" opacity="1.000000" stroke="none" 
	d="
M269.040588,170.965027 
	C268.841797,171.164429 268.627075,171.402573 268.374878,171.590286 
	C268.313019,171.636353 268.128540,171.517609 268.000427,171.474655 
	C268.211212,171.319611 268.422028,171.164566 268.845093,170.978119 
	C269.057404,170.946716 269.010864,170.985168 269.040588,170.965027 
z"/>
<path fill="#F6BD95" opacity="1.000000" stroke="none" 
	d="
M276.118378,245.290405 
	C278.888245,244.835266 281.658112,244.380142 284.960297,243.837540 
	C286.041870,249.463455 287.116577,255.053696 288.520905,260.844696 
	C288.850494,261.045441 289.020294,261.506195 288.824860,262.002930 
	C288.425171,263.668457 288.220917,264.837250 287.588684,266.004517 
	C284.901520,266.021027 282.642395,266.039032 280.223053,265.729736 
	C274.742126,259.732117 269.137085,259.943695 263.601929,266.004700 
	C255.022400,266.006256 246.916245,266.009033 238.594971,265.757660 
	C233.036316,259.724152 227.172714,259.918610 222.011139,266.021301 
	C218.062027,266.014557 214.537979,266.018890 211.013916,266.023193 
	C210.980103,264.928802 210.946304,263.834442 210.878174,262.333160 
	C211.521835,260.837585 212.199783,259.748901 213.010361,258.357239 
	C213.493027,258.021454 213.752914,257.851105 214.020111,257.081482 
	C214.117569,256.619781 214.095856,256.145782 214.095856,256.145782 
	C214.095856,256.145782 214.105423,256.069031 214.482849,256.074188 
	C216.777710,252.855713 219.228882,249.827209 220.494644,246.365280 
	C222.708344,240.310776 222.304291,240.520111 228.277451,242.360336 
	C233.479126,243.962845 238.811996,246.910660 244.446091,243.121033 
	C245.096085,242.683853 246.622513,243.492889 247.723587,243.793655 
	C251.087265,244.712509 254.427948,246.383499 257.802673,246.447937 
	C263.898315,246.564331 270.012146,245.728561 276.118378,245.290405 
z"/>
<path fill="#A48B93" opacity="1.000000" stroke="none" 
	d="
M288.016663,266.006073 
	C288.220917,264.837250 288.425171,263.668457 288.874573,262.243347 
	C296.973389,268.771240 293.297791,276.944366 291.830078,285.233521 
	C291.085541,286.950775 290.384521,288.280701 289.451233,289.835358 
	C287.361694,289.736389 285.504456,289.412628 283.341675,288.669617 
	C283.768951,286.188141 284.501801,284.125977 285.466919,281.792511 
	C286.471680,276.349487 287.244171,271.177795 288.016663,266.006073 
z"/>
<path fill="#A48B93" opacity="1.000000" stroke="none" 
	d="
M297.226044,270.311127 
	C299.332672,270.274017 301.331421,270.671021 303.659790,271.031891 
	C302.281342,273.516296 300.573273,276.036865 298.865234,278.557465 
	C298.282867,278.314148 297.700500,278.070831 297.118134,277.827515 
	C297.118134,275.466736 297.118134,273.105988 297.226044,270.311127 
z"/>
<path fill="#A1A6B4" opacity="1.000000" stroke="none" 
	d="
M182.284485,263.630005 
	C182.258484,263.736084 182.120728,263.351318 182.041885,263.162292 
	C182.124008,263.140900 182.239822,263.324463 182.284485,263.630005 
z"/>
<path fill="#4D6377" opacity="1.000000" stroke="none" 
	d="
M309.281067,282.879150 
	C309.020020,282.310303 309.019531,281.563110 309.021973,280.444702 
	C309.476990,280.047638 309.929047,280.021729 310.720825,280.009949 
	C310.554230,280.916290 310.047913,281.808502 309.281067,282.879150 
z"/>
<path fill="#4D6377" opacity="1.000000" stroke="none" 
	d="
M308.232330,283.942017 
	C308.206848,283.790009 308.411560,283.523102 308.835327,283.126434 
	C308.857117,283.273468 308.659821,283.550293 308.232330,283.942017 
z"/>
<path fill="#4D6377" opacity="1.000000" stroke="none" 
	d="
M307.264648,285.211487 
	C307.202484,284.971832 307.397156,284.645264 307.829834,284.159973 
	C308.066681,284.168243 308.065521,284.335236 308.057129,284.752502 
	C307.873779,285.043365 307.697632,285.083954 307.264648,285.211487 
z"/>
<path fill="#F9F9FB" opacity="1.000000" stroke="none" 
	d="
M236.352783,374.242493 
	C233.359558,366.392456 234.083450,359.415314 239.800156,353.551880 
	C244.894669,348.326569 251.232529,346.766479 258.134583,349.180847 
	C265.371887,351.712463 269.513916,357.089844 270.433746,364.702698 
	C271.157837,370.695740 269.086029,375.773865 264.810242,380.045349 
	C263.712006,381.142517 262.970367,382.616547 262.156494,383.972412 
	C261.475647,385.106659 260.928497,386.321136 260.322144,387.500092 
	C259.068176,386.838989 257.814209,386.177887 256.560272,385.516754 
	C256.977905,385.167511 257.395508,384.818237 257.813141,384.468994 
	C256.948303,385.419556 256.083466,386.370087 255.218613,387.320648 
	C254.243301,386.230194 253.267975,385.139740 252.086807,383.819122 
	C251.555084,384.908905 251.017242,386.011322 250.579681,386.908112 
	C248.186249,386.798981 246.053726,386.701721 244.189346,386.616730 
	C241.675827,382.666534 239.107407,378.630035 236.352783,374.242493 
M259.481995,373.025024 
	C263.294281,372.495239 265.453064,370.120148 264.029327,366.629181 
	C263.334259,364.924866 260.201111,363.494476 258.090149,363.374756 
	C256.936859,363.309296 254.414047,366.454010 254.650864,367.763672 
	C254.998596,369.686707 257.264130,371.262939 259.481995,373.025024 
M240.866745,369.206451 
	C241.895523,372.490570 244.422394,374.005890 247.326324,372.678833 
	C248.899033,371.960114 250.603561,369.007202 250.310928,367.419159 
	C250.001190,365.738251 247.555374,363.558838 245.751114,363.238464 
	C242.401123,362.643616 240.703308,365.001190 240.866745,369.206451 
z"/>
<path fill="#E4C1A0" opacity="1.000000" stroke="none" 
	d="
M285.234650,282.063812 
	C284.501801,284.125977 283.768951,286.188141 282.945679,288.602722 
	C280.477814,291.553711 278.100372,294.152283 275.450073,296.930084 
	C267.658112,295.592743 260.132324,295.126282 252.550995,296.743774 
	C251.119812,297.049133 249.344360,297.458160 248.154449,296.903687 
	C239.159454,292.712372 229.934753,297.609467 220.442444,296.014832 
	C217.436371,291.567505 214.901764,287.113312 212.701523,282.327026 
	C217.779099,281.634674 222.522324,281.274445 227.533997,281.131836 
	C231.807068,285.215271 232.963928,285.171936 237.527390,281.076843 
	C247.307022,281.101440 256.683380,281.049469 266.343506,281.207764 
	C270.622162,285.204407 271.766022,285.151733 276.363037,281.056335 
	C279.589081,281.437469 282.411865,281.750641 285.234650,282.063812 
z"/>
<path fill="#EBBE9A" opacity="1.000000" stroke="none" 
	d="
M266.059753,280.997467 
	C256.683380,281.049469 247.307022,281.101440 237.563751,280.695923 
	C237.433060,279.276428 237.832535,278.321991 237.877426,277.351166 
	C238.078201,273.007904 235.379395,269.267303 232.177200,269.307709 
	C228.883926,269.349274 226.483429,272.890320 226.720200,277.475189 
	C226.779724,278.627838 227.077347,279.768188 227.265549,280.914185 
	C222.522324,281.274445 217.779099,281.634674 212.587189,281.991394 
	C211.751221,276.973206 211.363937,271.958527 210.995285,266.483521 
	C214.537979,266.018890 218.062027,266.014557 222.466110,266.097565 
	C228.500793,266.127167 233.655441,266.069489 238.810104,266.011780 
	C246.916245,266.009033 255.022400,266.006256 263.846924,266.219635 
	C269.837982,266.309540 275.110596,266.183289 280.383240,266.057068 
	C282.642395,266.039032 284.901520,266.021027 287.588684,266.004517 
	C287.244171,271.177795 286.471680,276.349487 285.466919,281.792511 
	C282.411865,281.750641 279.589081,281.437469 276.397827,280.676636 
	C276.233124,278.756989 276.763031,277.241882 276.575378,275.821594 
	C276.135620,272.492645 274.771393,269.308594 270.876587,269.420410 
	C267.028076,269.530975 265.740906,272.753235 265.417389,276.088837 
	C265.262177,277.689209 265.823120,279.359070 266.059753,280.997467 
z"/>
<path fill="#AA7F88" opacity="1.000000" stroke="none" 
	d="
M275.655792,245.185577 
	C270.012146,245.728561 263.898315,246.564331 257.802673,246.447937 
	C254.427948,246.383499 251.087265,244.712509 247.723587,243.793655 
	C246.622513,243.492889 245.096085,242.683853 244.446091,243.121033 
	C238.811996,246.910660 233.479126,243.962845 228.277451,242.360336 
	C222.304291,240.520111 222.708344,240.310776 220.494644,246.365280 
	C219.228882,249.827209 216.777710,252.855713 214.514557,256.096313 
	C216.222229,248.828415 218.275589,241.543549 220.415527,233.951614 
	C224.939880,238.355698 230.449951,241.963257 238.471252,240.786758 
	C237.417114,238.430649 236.574509,236.547348 235.876862,234.318375 
	C236.021820,233.972702 235.986694,234.019073 235.986694,234.019073 
	C247.928436,241.701126 260.753326,246.252945 275.655792,245.185577 
z"/>
<path fill="#AA7F88" opacity="1.000000" stroke="none" 
	d="
M236.038086,233.948578 
	C235.828445,233.915146 235.602554,233.905807 235.376663,233.896484 
	C235.526077,233.810440 235.675491,233.724411 235.905807,233.828735 
	C235.986694,234.019073 236.021820,233.972702 236.038086,233.948578 
z"/>
<path fill="#AA7F88" opacity="1.000000" stroke="none" 
	d="
M213.846710,256.124237 
	C214.095856,256.145782 214.117569,256.619781 214.030884,256.840607 
	C213.707855,256.856415 213.471512,256.651398 213.235168,256.446381 
	C213.355957,256.331818 213.476746,256.217255 213.846710,256.124237 
z"/>
<path fill="#141F82" opacity="1.000000" stroke="none" 
	d="
M238.594971,265.757690 
	C233.655441,266.069489 228.500793,266.127167 222.891159,266.108582 
	C227.172714,259.918610 233.036316,259.724152 238.594971,265.757690 
z"/>
<path fill="#141F82" opacity="1.000000" stroke="none" 
	d="
M280.223053,265.729736 
	C275.110596,266.183289 269.837982,266.309540 264.320312,266.220856 
	C269.137085,259.943695 274.742126,259.732117 280.223053,265.729736 
z"/>
<path fill="#090977" opacity="1.000000" stroke="none" 
	d="
M259.097290,373.005981 
	C257.264130,371.262939 254.998596,369.686707 254.650864,367.763672 
	C254.414047,366.454010 256.936859,363.309296 258.090149,363.374756 
	C260.201111,363.494476 263.334259,364.924866 264.029327,366.629181 
	C265.453064,370.120148 263.294281,372.495239 259.097290,373.005981 
z"/>
<path fill="#090977" opacity="1.000000" stroke="none" 
	d="
M240.795776,368.804016 
	C240.703308,365.001190 242.401123,362.643616 245.751114,363.238464 
	C247.555374,363.558838 250.001190,365.738251 250.310928,367.419159 
	C250.603561,369.007202 248.899033,371.960114 247.326324,372.678833 
	C244.422394,374.005890 241.895523,372.490570 240.795776,368.804016 
z"/>
<path fill="#141F82" opacity="1.000000" stroke="none" 
	d="
M266.343506,281.207764 
	C265.823120,279.359070 265.262177,277.689209 265.417389,276.088837 
	C265.740906,272.753235 267.028076,269.530975 270.876587,269.420410 
	C274.771393,269.308594 276.135620,272.492645 276.575378,275.821594 
	C276.763031,277.241882 276.233124,278.756989 275.994537,280.608704 
	C271.766022,285.151733 270.622162,285.204407 266.343506,281.207764 
z"/>
<path fill="#141F82" opacity="1.000000" stroke="none" 
	d="
M227.533997,281.131836 
	C227.077347,279.768188 226.779724,278.627838 226.720200,277.475189 
	C226.483429,272.890320 228.883926,269.349274 232.177200,269.307709 
	C235.379395,269.267303 238.078201,273.007904 237.877426,277.351166 
	C237.832535,278.321991 237.433060,279.276428 237.160492,280.619324 
	C232.963928,285.171936 231.807068,285.215271 227.533997,281.131836 
z"/>
</svg>